<?xml version="1.0" encoding="utf-8"?>
<!-- Generator: Adobe Illustrator 24.2.1, SVG Export Plug-In . SVG Version: 6.00 Build 0)  -->
<svg version="1.1" id="Layer_1" xmlns="http://www.w3.org/2000/svg" xmlns:xlink="http://www.w3.org/1999/xlink" x="0px" y="0px"
	 viewBox="0 0 249 216" style="enable-background:new 0 0 249 216;" xml:space="preserve">
<style type="text/css">
	.st0{fill-rule:evenodd;clip-rule:evenodd;}
	.st1{enable-background:new    ;}
	.st2{fill:#FFFFFF;}
	.st3{opacity:0.8;enable-background:new    ;}
</style>
<!-- <g id="Oval">
	<circle class="st0" cx="234.5" cy="56.5" r="14.5"/>
</g> -->
<g>
	<g class="st1">
		<path d="M0.9,17.4c0-1.6,0.1-3.1,0.4-4.6c0.3-1.5,0.7-2.8,1.4-3.9C3.3,7.8,4.1,6.8,5,6.2c1-0.7,2.1-1,3.5-1c1.4,0,2.5,0.3,3.5,1
			s1.8,1.6,2.4,2.7c0.6,1.1,1.1,2.4,1.4,3.9c0.3,1.5,0.4,3,0.4,4.6c0,1.6-0.1,3.1-0.4,4.6c-0.3,1.5-0.8,2.8-1.4,3.9s-1.4,2-2.4,2.7
			s-2.1,1-3.5,1c-1.4,0-2.5-0.3-3.5-1c-1-0.7-1.7-1.6-2.4-2.7c-0.6-1.1-1.1-2.4-1.4-3.9C1,20.6,0.9,19,0.9,17.4z M8.5,27.9
			c0.6,0,1.2-0.2,1.7-0.8s0.9-1.2,1.3-2.1c0.4-0.9,0.6-2,0.8-3.3s0.3-2.7,0.3-4.3c0-1.5-0.1-2.9-0.3-4.2c-0.2-1.3-0.5-2.4-0.8-3.4
			c-0.4-0.9-0.8-1.7-1.3-2.2C9.7,7.1,9.1,6.8,8.5,6.8S7.3,7.1,6.8,7.6C6.3,8.1,5.9,8.9,5.5,9.8s-0.6,2.1-0.8,3.3
			c-0.2,1.3-0.3,2.7-0.3,4.2c0,1.6,0.1,3,0.3,4.3C4.9,23,5.2,24.1,5.6,25c0.4,0.9,0.8,1.6,1.3,2.1C7.3,27.6,7.9,27.9,8.5,27.9z"/>
		<path d="M32.4,19.5c-0.4,0.4-0.9,0.8-1.4,1c-0.5,0.2-1.1,0.4-1.8,0.5c-1.1,0.1-2.1,0-3-0.4s-1.8-0.9-2.5-1.6
			c-0.7-0.7-1.2-1.6-1.6-2.6c-0.4-1-0.6-2.1-0.6-3.3c0-1.1,0.2-2.1,0.5-3.1c0.3-1,0.8-1.8,1.4-2.5c0.6-0.7,1.3-1.3,2.2-1.7
			s1.9-0.6,3-0.6c1.2,0,2.3,0.2,3.2,0.8c1,0.5,1.8,1.2,2.5,2.1c0.7,0.9,1.2,2,1.6,3.2c0.4,1.2,0.5,2.6,0.5,4.1c0,2-0.3,3.8-1,5.5
			c-0.7,1.7-1.6,3.3-2.9,4.6c-1.2,1.3-2.8,2.3-4.5,3.1s-3.8,1.2-6,1.2l0-1.5c1.3-0.1,2.6-0.4,3.7-0.8c1.1-0.4,2.1-1,3-1.7
			c0.9-0.7,1.6-1.5,2.3-2.5C31.5,22.3,32,21.1,32.4,19.5z M32.8,14.5c0-1,0-1.9-0.2-2.9c-0.2-0.9-0.5-1.8-0.8-2.5
			c-0.4-0.7-0.8-1.3-1.3-1.7s-1.1-0.7-1.8-0.7c-0.6,0-1.2,0.2-1.6,0.6c-0.4,0.4-0.8,0.9-1.1,1.5s-0.5,1.3-0.6,2
			c-0.1,0.8-0.1,1.5-0.1,2.3c0,0.8,0.2,1.6,0.4,2.4c0.2,0.8,0.5,1.4,0.9,2s0.8,1,1.3,1.3c0.5,0.3,1.1,0.4,1.7,0.4
			c0.9-0.1,1.6-0.6,2.3-1.4C32.4,16.9,32.7,15.8,32.8,14.5z"/>
	</g>
	<g class="st1">
		<path d="M80.7,53.2l2.6-1.4v7.8c0,0.2,0,0.4,0.1,0.5s0.1,0.2,0.2,0.3s0.2,0.1,0.4,0.1s0.4,0,0.6,0V61h-3.8v-0.6c0.2,0,0.4,0,0.5,0
			s0.3,0,0.4-0.1s0.2-0.1,0.2-0.3s0.1-0.3,0.1-0.5V54c0-0.2,0-0.3,0-0.4s0-0.2-0.1-0.2s-0.2,0-0.4,0.1s-0.5,0.2-0.8,0.3V53.2z"/>
	</g>
	<g class="st1">
		<path d="M117.7,61v-0.4c0.2-0.3,0.5-0.6,0.8-0.9s0.6-0.7,0.8-1s0.5-0.7,0.8-0.9s0.4-0.5,0.6-0.7c0.1-0.2,0.3-0.4,0.4-0.6
			s0.2-0.4,0.3-0.6s0.2-0.4,0.3-0.7s0.1-0.4,0.1-0.6c0-0.2,0-0.4-0.1-0.6s-0.1-0.4-0.3-0.5s-0.3-0.3-0.5-0.4s-0.4-0.2-0.7-0.2
			c-0.2,0-0.4,0-0.6,0.1s-0.4,0.2-0.5,0.4s-0.3,0.4-0.4,0.6s-0.2,0.5-0.3,0.8l-0.8-0.2c0.1-0.3,0.2-0.7,0.3-1s0.3-0.6,0.6-0.8
			s0.5-0.4,0.8-0.6s0.7-0.2,1.1-0.2c0.4,0,0.7,0.1,1,0.2s0.6,0.3,0.8,0.5s0.4,0.5,0.5,0.8s0.2,0.6,0.2,0.9c0,0.3,0,0.5-0.1,0.8
			s-0.2,0.5-0.3,0.8s-0.2,0.5-0.4,0.7s-0.3,0.4-0.4,0.6c-0.2,0.3-0.4,0.5-0.6,0.8s-0.4,0.5-0.6,0.7s-0.4,0.5-0.6,0.7
			s-0.4,0.5-0.6,0.7h2.1c0.2,0,0.3,0,0.4,0s0.2,0,0.3-0.1s0.1-0.1,0.2-0.2s0.2-0.3,0.3-0.5h0.7l-0.7,1.7H117.7z"/>
	</g>
	<g class="st1">
		<path d="M160.7,53.9c0,0.2,0,0.4-0.1,0.6c-0.1,0.2-0.2,0.4-0.3,0.6s-0.3,0.3-0.4,0.5s-0.4,0.3-0.6,0.4c0.2,0.1,0.5,0.2,0.7,0.3
			s0.4,0.3,0.6,0.5s0.3,0.4,0.4,0.7c0.1,0.3,0.2,0.5,0.2,0.8c0,0.4-0.1,0.8-0.2,1.1c-0.1,0.3-0.3,0.6-0.5,0.8s-0.5,0.4-0.8,0.6
			s-0.7,0.3-1.1,0.4c-0.3,0.1-0.6,0.1-0.9,0.1s-0.6,0-0.8-0.1c-0.2-0.1-0.4-0.2-0.6-0.3s-0.2-0.3-0.2-0.4c0-0.1,0.1-0.3,0.2-0.4
			s0.3-0.2,0.5-0.2c0.2,0,0.5,0.1,0.6,0.2s0.3,0.2,0.5,0.3c0.1,0.1,0.3,0.2,0.4,0.2s0.2,0,0.3,0c0.2,0,0.4-0.1,0.5-0.1
			s0.3-0.2,0.5-0.4s0.3-0.3,0.4-0.5s0.1-0.5,0.2-0.7c0-0.8-0.2-1.3-0.6-1.6s-1.1-0.4-2.1-0.3v-0.6c0.3-0.1,0.6-0.2,0.9-0.3
			s0.5-0.3,0.7-0.5s0.3-0.4,0.4-0.6s0.1-0.5,0.1-0.7c0-0.4-0.1-0.7-0.3-0.9s-0.4-0.3-0.8-0.3c-0.3,0-0.7,0.1-1,0.4s-0.5,0.6-0.6,1.1
			l-0.8-0.1c0.1-0.3,0.2-0.6,0.4-0.9s0.4-0.5,0.6-0.7s0.5-0.4,0.8-0.5s0.6-0.2,1-0.2c0.3,0,0.6,0,0.8,0.1s0.5,0.2,0.7,0.4
			c0.2,0.2,0.3,0.4,0.5,0.6C160.7,53.4,160.7,53.6,160.7,53.9z"/>
	</g>
	<g class="st1">
		<path d="M197.4,52h0.9v6h1.4v0.8h-1.4V61H197v-2.3h-3.5v-0.7L197.4,52z M197,54.3l-2.3,3.6h2.3V54.3z"/>
	</g>
	<g class="st1">
		<path class="st2" d="M233.7,61.1c-0.2,0-0.5,0-0.7-0.1c-0.2,0-0.5-0.1-0.7-0.2c-0.2-0.1-0.4-0.2-0.5-0.3s-0.2-0.2-0.2-0.4
			c0-0.2,0.1-0.3,0.2-0.4c0.1-0.1,0.3-0.2,0.5-0.2s0.4,0,0.6,0.1s0.3,0.2,0.5,0.3c0.1,0.1,0.3,0.2,0.4,0.2c0.2,0.1,0.4,0.1,0.5,0.1
			c0.2,0,0.5-0.1,0.7-0.2c0.2-0.1,0.4-0.3,0.6-0.5c0.2-0.2,0.3-0.5,0.4-0.8c0.1-0.3,0.1-0.6,0.1-1c0-0.9-0.3-1.7-0.8-2.2
			s-1.4-0.7-2.6-0.6c-0.1,0-0.3,0-0.3-0.1c-0.1-0.1-0.1-0.2-0.1-0.3l1.3-3.3h3.7l-0.2,0.9H234l-0.7,1.9c0.6,0,1.1,0,1.6,0.2
			c0.5,0.1,0.9,0.4,1.2,0.7c0.3,0.3,0.6,0.6,0.8,1.1c0.2,0.4,0.3,0.9,0.3,1.4c0,0.5-0.1,1-0.3,1.4c-0.2,0.4-0.4,0.8-0.7,1.2
			s-0.7,0.6-1.1,0.8S234.2,61.1,233.7,61.1z"/>
	</g>
	<g class="st1">
		<path d="M5.3,93.8c0.1-0.1,0.3-0.2,0.5-0.3s0.4-0.2,0.6-0.2c0.4,0,0.8,0,1.1,0.1s0.7,0.3,0.9,0.6s0.5,0.6,0.6,1s0.2,0.8,0.2,1.2
			c0,0.4-0.1,0.8-0.2,1.2s-0.3,0.7-0.5,0.9S8.1,98.9,7.8,99s-0.7,0.2-1.1,0.2c-0.4,0-0.8-0.1-1.2-0.3s-0.7-0.5-0.9-0.8
			S4.1,97.4,4,97s-0.2-1-0.2-1.5c0-0.7,0.1-1.4,0.4-2.1s0.6-1.2,1.1-1.7s1-0.9,1.7-1.2S8.3,90,9.2,90l0,0.5c-0.5,0-0.9,0.1-1.4,0.3
			S7,91.2,6.7,91.5s-0.6,0.6-0.8,0.9S5.4,93.3,5.3,93.8z M5.1,95.7c0,0.4,0,0.7,0.1,1.1s0.2,0.6,0.3,0.9s0.3,0.5,0.5,0.6
			s0.4,0.2,0.7,0.2c0.2,0,0.4-0.1,0.6-0.2s0.3-0.3,0.4-0.5s0.2-0.5,0.2-0.7s0.1-0.6,0-0.8c0-0.3-0.1-0.6-0.2-0.9s-0.2-0.5-0.3-0.7
			S7.2,94.3,7,94.2S6.6,94,6.3,94c-0.3,0-0.6,0.2-0.8,0.5S5.1,95.2,5.1,95.7z"/>
	</g>
	<g class="st1">
		<path d="M47.2,90.2l0.2,0.2L44.7,99h-1.2l2.4-7.9h-2.3c-0.2,0-0.3,0-0.4,0.1s-0.2,0.1-0.3,0.2s-0.2,0.2-0.3,0.3s-0.2,0.3-0.3,0.5
			L41.6,92l0.8-1.9H47.2z"/>
	</g>
	<g class="st1">
		<path d="M85,92.2c0,0.3,0,0.5-0.1,0.8s-0.2,0.4-0.3,0.6s-0.3,0.3-0.4,0.5s-0.3,0.2-0.5,0.3c0.5,0.2,0.9,0.5,1.2,0.8
			s0.4,0.8,0.4,1.4c0,0.4-0.1,0.7-0.2,1.1s-0.3,0.6-0.6,0.8s-0.6,0.4-0.9,0.5s-0.7,0.2-1.1,0.2c-0.4,0-0.7-0.1-1-0.2
			s-0.6-0.3-0.9-0.5s-0.4-0.5-0.6-0.7s-0.2-0.6-0.2-0.9c0-0.3,0-0.6,0.1-0.8s0.2-0.5,0.4-0.7s0.3-0.4,0.5-0.5s0.4-0.3,0.6-0.3
			c-0.2-0.1-0.4-0.2-0.5-0.3s-0.3-0.3-0.5-0.5s-0.2-0.4-0.3-0.6s-0.1-0.5-0.1-0.8c0-0.3,0.1-0.6,0.2-0.9s0.3-0.5,0.5-0.7
			s0.5-0.4,0.8-0.5s0.7-0.2,1.1-0.2c0.3,0,0.6,0,0.9,0.1s0.6,0.2,0.8,0.4s0.4,0.4,0.6,0.7S85,91.8,85,92.2z M80.9,96.9
			c0,0.3,0,0.5,0.1,0.7s0.2,0.4,0.4,0.5s0.3,0.2,0.5,0.3s0.4,0.1,0.6,0.1c0.2,0,0.4,0,0.6-0.1s0.4-0.2,0.5-0.3s0.3-0.3,0.4-0.5
			s0.1-0.4,0.1-0.7c0-0.3,0-0.6-0.1-0.8s-0.2-0.4-0.4-0.5s-0.4-0.3-0.6-0.4s-0.5-0.2-0.8-0.4c-0.4,0.2-0.8,0.5-1,0.8
			S80.9,96.4,80.9,96.9z M81.2,92.2c0,0.2,0,0.4,0.1,0.6s0.2,0.4,0.4,0.5s0.3,0.3,0.5,0.4s0.4,0.2,0.7,0.3c0.3-0.2,0.5-0.4,0.7-0.7
			s0.3-0.6,0.3-1c0-0.3,0-0.5-0.1-0.8s-0.2-0.4-0.3-0.5s-0.3-0.3-0.4-0.3s-0.3-0.1-0.5-0.1c-0.2,0-0.3,0-0.5,0.1s-0.3,0.2-0.4,0.3
			s-0.2,0.3-0.3,0.5S81.2,91.9,81.2,92.2z"/>
	</g>
	<g class="st1">
		<path d="M121.8,95.4c-0.2,0.2-0.3,0.3-0.5,0.4s-0.4,0.2-0.7,0.2c-0.4,0-0.8,0-1.1-0.2s-0.7-0.3-0.9-0.6s-0.5-0.6-0.6-1
			s-0.2-0.8-0.2-1.2c0-0.4,0.1-0.8,0.2-1.2s0.3-0.7,0.5-0.9s0.5-0.5,0.8-0.6s0.7-0.2,1.1-0.2c0.4,0,0.8,0.1,1.2,0.3s0.7,0.5,0.9,0.8
			s0.4,0.7,0.6,1.2s0.2,1,0.2,1.5c0,0.7-0.1,1.4-0.4,2.1s-0.6,1.2-1.1,1.7s-1,0.9-1.7,1.2s-1.4,0.4-2.3,0.4l0-0.6
			c0.5,0,1-0.2,1.4-0.3s0.8-0.4,1.1-0.6s0.6-0.6,0.9-0.9S121.6,96,121.8,95.4z M121.9,93.6c0-0.4,0-0.7-0.1-1.1s-0.2-0.7-0.3-0.9
			s-0.3-0.5-0.5-0.7s-0.4-0.2-0.7-0.2c-0.2,0-0.4,0.1-0.6,0.2s-0.3,0.3-0.4,0.5s-0.2,0.5-0.2,0.8s-0.1,0.6,0,0.9
			c0,0.3,0.1,0.6,0.2,0.9s0.2,0.5,0.3,0.7s0.3,0.4,0.5,0.5s0.4,0.2,0.6,0.1c0.3-0.1,0.6-0.2,0.9-0.5S121.9,94.1,121.9,93.6z"/>
	</g>
	<g class="st1">
		<path d="M153.9,91.2l2.6-1.4v7.8c0,0.2,0,0.4,0.1,0.5s0.1,0.2,0.2,0.3s0.2,0.1,0.4,0.1s0.4,0,0.6,0V99H154v-0.6c0.2,0,0.4,0,0.5,0
			s0.3,0,0.4-0.1s0.2-0.1,0.2-0.3s0.1-0.3,0.1-0.5V92c0-0.2,0-0.3,0-0.4s0-0.2-0.1-0.2s-0.2,0-0.4,0.1s-0.5,0.2-0.8,0.3V91.2z"/>
		<path d="M159.3,94.7c0-0.6,0.1-1.2,0.2-1.7s0.3-1,0.5-1.5s0.5-0.8,0.9-1s0.8-0.4,1.3-0.4s0.9,0.1,1.3,0.4s0.7,0.6,0.9,1
			s0.4,0.9,0.5,1.5s0.2,1.1,0.2,1.7c0,0.6-0.1,1.2-0.2,1.7s-0.3,1-0.5,1.5s-0.5,0.8-0.9,1s-0.8,0.4-1.3,0.4c-0.5,0-0.9-0.1-1.3-0.4
			s-0.7-0.6-0.9-1s-0.4-0.9-0.5-1.5S159.3,95.3,159.3,94.7z M162.2,98.6c0.2,0,0.5-0.1,0.6-0.3s0.3-0.5,0.5-0.8s0.2-0.8,0.3-1.2
			s0.1-1,0.1-1.6c0-0.6,0-1.1-0.1-1.6s-0.2-0.9-0.3-1.3s-0.3-0.6-0.5-0.8s-0.4-0.3-0.6-0.3s-0.4,0.1-0.6,0.3s-0.4,0.5-0.5,0.8
			s-0.2,0.8-0.3,1.3s-0.1,1-0.1,1.6c0,0.6,0,1.1,0.1,1.6s0.2,0.9,0.3,1.2s0.3,0.6,0.5,0.8S162,98.6,162.2,98.6z"/>
	</g>
	<g class="st1">
		<path d="M191.9,91.2l2.6-1.4v7.8c0,0.2,0,0.4,0.1,0.5s0.1,0.2,0.2,0.3s0.2,0.1,0.4,0.1s0.4,0,0.6,0V99H192v-0.6c0.2,0,0.4,0,0.5,0
			s0.3,0,0.4-0.1s0.2-0.1,0.2-0.3s0.1-0.3,0.1-0.5V92c0-0.2,0-0.3,0-0.4s0-0.2-0.1-0.2s-0.2,0-0.4,0.1s-0.5,0.2-0.8,0.3V91.2z"/>
		<path d="M198.4,91.2l2.6-1.4v7.8c0,0.2,0,0.4,0.1,0.5s0.1,0.2,0.2,0.3s0.2,0.1,0.4,0.1s0.4,0,0.6,0V99h-3.8v-0.6
			c0.2,0,0.4,0,0.5,0s0.3,0,0.4-0.1s0.2-0.1,0.2-0.3s0.1-0.3,0.1-0.5V92c0-0.2,0-0.3,0-0.4s0-0.2-0.1-0.2s-0.2,0-0.4,0.1
			s-0.5,0.2-0.8,0.3V91.2z"/>
	</g>
	<g class="st1">
		<path d="M229.9,91.2l2.6-1.4v7.8c0,0.2,0,0.4,0.1,0.5s0.1,0.2,0.2,0.3s0.2,0.1,0.4,0.1s0.4,0,0.6,0V99H230v-0.6c0.2,0,0.4,0,0.5,0
			s0.3,0,0.4-0.1s0.2-0.1,0.2-0.3s0.1-0.3,0.1-0.5V92c0-0.2,0-0.3,0-0.4s0-0.2-0.1-0.2s-0.2,0-0.4,0.1s-0.5,0.2-0.8,0.3V91.2z"/>
		<path d="M235.5,99v-0.4c0.2-0.3,0.5-0.6,0.8-0.9s0.6-0.7,0.8-1s0.5-0.7,0.8-0.9s0.4-0.5,0.6-0.7c0.1-0.2,0.3-0.4,0.4-0.6
			s0.2-0.4,0.3-0.6s0.2-0.4,0.3-0.7s0.1-0.4,0.1-0.6c0-0.2,0-0.4-0.1-0.6s-0.1-0.4-0.3-0.5s-0.3-0.3-0.5-0.4s-0.4-0.2-0.7-0.2
			c-0.2,0-0.4,0-0.6,0.1s-0.4,0.2-0.5,0.4s-0.3,0.4-0.4,0.6s-0.2,0.5-0.3,0.8l-0.8-0.2c0.1-0.3,0.2-0.7,0.3-1s0.3-0.6,0.6-0.8
			s0.5-0.4,0.8-0.6s0.7-0.2,1.1-0.2c0.4,0,0.7,0.1,1,0.2s0.6,0.3,0.8,0.5s0.4,0.5,0.5,0.8s0.2,0.6,0.2,0.9c0,0.3,0,0.5-0.1,0.8
			s-0.2,0.5-0.3,0.8s-0.2,0.5-0.4,0.7s-0.3,0.4-0.4,0.6c-0.2,0.3-0.4,0.5-0.6,0.8s-0.4,0.5-0.6,0.7s-0.4,0.5-0.6,0.7
			s-0.4,0.5-0.6,0.7h2.1c0.2,0,0.3,0,0.4,0s0.2,0,0.3-0.1s0.1-0.1,0.2-0.2s0.2-0.3,0.3-0.5h0.7l-0.7,1.7H235.5z"/>
	</g>
	<g class="st1">
		<path d="M1.9,129.2l2.6-1.4v7.8c0,0.2,0,0.4,0.1,0.5s0.1,0.2,0.2,0.3s0.2,0.1,0.4,0.1s0.4,0,0.6,0v0.6H2v-0.6c0.2,0,0.4,0,0.5,0
			s0.3,0,0.4-0.1s0.2-0.1,0.2-0.3s0.1-0.3,0.1-0.5V130c0-0.2,0-0.3,0-0.4s0-0.2-0.1-0.2s-0.2,0-0.4,0.1s-0.5,0.2-0.8,0.3V129.2z"/>
		<path d="M12.5,129.9c0,0.2,0,0.4-0.1,0.6c-0.1,0.2-0.2,0.4-0.3,0.6s-0.3,0.3-0.4,0.5s-0.4,0.3-0.6,0.4c0.2,0.1,0.5,0.2,0.7,0.3
			s0.4,0.3,0.6,0.5s0.3,0.4,0.4,0.7c0.1,0.3,0.2,0.5,0.2,0.8c0,0.4-0.1,0.8-0.2,1.1c-0.1,0.3-0.3,0.6-0.5,0.8s-0.5,0.4-0.8,0.6
			s-0.7,0.3-1.1,0.4c-0.3,0.1-0.6,0.1-0.9,0.1s-0.6,0-0.8-0.1c-0.2-0.1-0.4-0.2-0.6-0.3s-0.2-0.3-0.2-0.4c0-0.1,0.1-0.3,0.2-0.4
			s0.3-0.2,0.5-0.2c0.2,0,0.5,0.1,0.6,0.2s0.3,0.2,0.5,0.3c0.1,0.1,0.3,0.2,0.4,0.2s0.2,0,0.3,0c0.2,0,0.4-0.1,0.5-0.1
			s0.3-0.2,0.5-0.4s0.3-0.3,0.4-0.5s0.1-0.5,0.2-0.7c0-0.8-0.2-1.3-0.6-1.6s-1.1-0.4-2.1-0.3v-0.6c0.3-0.1,0.6-0.2,0.9-0.3
			s0.5-0.3,0.7-0.5s0.3-0.4,0.4-0.6s0.1-0.5,0.1-0.7c0-0.4-0.1-0.7-0.3-0.9s-0.4-0.3-0.8-0.3c-0.3,0-0.7,0.1-1,0.4s-0.5,0.6-0.6,1.1
			l-0.8-0.1c0.1-0.3,0.2-0.6,0.4-0.9s0.4-0.5,0.6-0.7s0.5-0.4,0.8-0.5s0.6-0.2,1-0.2c0.3,0,0.6,0,0.8,0.1s0.5,0.2,0.7,0.4
			c0.2,0.2,0.3,0.4,0.5,0.6C12.4,129.4,12.5,129.6,12.5,129.9z"/>
	</g>
	<g class="st1">
		<path d="M39.9,129.2l2.6-1.4v7.8c0,0.2,0,0.4,0.1,0.5s0.1,0.2,0.2,0.3s0.2,0.1,0.4,0.1s0.4,0,0.6,0v0.6H40v-0.6c0.2,0,0.4,0,0.5,0
			s0.3,0,0.4-0.1s0.2-0.1,0.2-0.3s0.1-0.3,0.1-0.5V130c0-0.2,0-0.3,0-0.4s0-0.2-0.1-0.2s-0.2,0-0.4,0.1s-0.5,0.2-0.8,0.3V129.2z"/>
		<path d="M49.1,128H50v6h1.4v0.8H50v2.3h-1.3v-2.3h-3.5v-0.7L49.1,128z M48.7,130.3l-2.3,3.6h2.3V130.3z"/>
	</g>
	<g class="st1">
		<path d="M77.9,129.2l2.6-1.4v7.8c0,0.2,0,0.4,0.1,0.5s0.1,0.2,0.2,0.3s0.2,0.1,0.4,0.1s0.4,0,0.6,0v0.6H78v-0.6c0.2,0,0.4,0,0.5,0
			s0.3,0,0.4-0.1s0.2-0.1,0.2-0.3s0.1-0.3,0.1-0.5V130c0-0.2,0-0.3,0-0.4s0-0.2-0.1-0.2s-0.2,0-0.4,0.1s-0.5,0.2-0.8,0.3V129.2z"/>
		<path d="M85.5,137.2c-0.2,0-0.4,0-0.7-0.1s-0.5-0.1-0.7-0.2s-0.4-0.2-0.5-0.3s-0.2-0.2-0.2-0.4c0-0.1,0.1-0.3,0.2-0.4
			s0.3-0.2,0.5-0.2c0.2,0,0.4,0,0.6,0.1s0.3,0.2,0.5,0.3c0.1,0.1,0.2,0.1,0.4,0.2s0.3,0.1,0.4,0.1c0.2,0,0.4-0.1,0.6-0.2
			s0.3-0.3,0.5-0.5s0.2-0.4,0.3-0.7s0.1-0.6,0.1-0.9c0-0.9-0.2-1.5-0.7-1.9s-1.2-0.6-2.3-0.6c-0.2,0-0.3,0-0.4-0.1s-0.1-0.2-0.1-0.3
			l1.2-3h3.6l-0.2,0.9h-2.7l-0.6,1.6c0.5,0,1,0,1.4,0.2s0.8,0.3,1.1,0.6s0.5,0.6,0.7,1s0.3,0.8,0.3,1.3c0,0.4-0.1,0.9-0.2,1.3
			s-0.4,0.8-0.7,1.1s-0.6,0.6-1,0.7S85.9,137.2,85.5,137.2z"/>
	</g>
	<g class="st1">
		<path d="M115.9,129.2l2.6-1.4v7.8c0,0.2,0,0.4,0.1,0.5s0.1,0.2,0.2,0.3s0.2,0.1,0.4,0.1s0.4,0,0.6,0v0.6H116v-0.6
			c0.2,0,0.4,0,0.5,0s0.3,0,0.4-0.1s0.2-0.1,0.2-0.3s0.1-0.3,0.1-0.5V130c0-0.2,0-0.3,0-0.4s0-0.2-0.1-0.2s-0.2,0-0.4,0.1
			s-0.5,0.2-0.8,0.3V129.2z"/>
		<path d="M123,131.8c0.1-0.1,0.3-0.2,0.5-0.3s0.4-0.2,0.6-0.2c0.4,0,0.8,0,1.1,0.1s0.7,0.3,0.9,0.6s0.5,0.6,0.6,1s0.2,0.8,0.2,1.2
			c0,0.4-0.1,0.8-0.2,1.2s-0.3,0.7-0.5,0.9s-0.5,0.5-0.8,0.6s-0.7,0.2-1.1,0.2c-0.4,0-0.8-0.1-1.2-0.3s-0.7-0.5-0.9-0.8
			s-0.4-0.7-0.6-1.2s-0.2-1-0.2-1.5c0-0.7,0.1-1.4,0.4-2.1s0.6-1.2,1.1-1.7s1-0.9,1.7-1.2s1.4-0.4,2.3-0.4l0,0.5
			c-0.5,0-0.9,0.1-1.4,0.3s-0.8,0.4-1.1,0.7s-0.6,0.6-0.8,0.9S123.2,131.3,123,131.8z M122.9,133.7c0,0.4,0,0.7,0.1,1.1
			s0.2,0.6,0.3,0.9s0.3,0.5,0.5,0.6s0.4,0.2,0.7,0.2c0.2,0,0.4-0.1,0.6-0.2s0.3-0.3,0.4-0.5s0.2-0.5,0.2-0.7s0.1-0.6,0-0.8
			c0-0.3-0.1-0.6-0.2-0.9s-0.2-0.5-0.3-0.7s-0.3-0.4-0.5-0.5s-0.4-0.2-0.6-0.1c-0.3,0-0.6,0.2-0.8,0.5S122.9,133.2,122.9,133.7z"/>
	</g>
	<g class="st1">
		<path d="M153.9,129.2l2.6-1.4v7.8c0,0.2,0,0.4,0.1,0.5s0.1,0.2,0.2,0.3s0.2,0.1,0.4,0.1s0.4,0,0.6,0v0.6H154v-0.6
			c0.2,0,0.4,0,0.5,0s0.3,0,0.4-0.1s0.2-0.1,0.2-0.3s0.1-0.3,0.1-0.5V130c0-0.2,0-0.3,0-0.4s0-0.2-0.1-0.2s-0.2,0-0.4,0.1
			s-0.5,0.2-0.8,0.3V129.2z"/>
		<path d="M164.9,128.2l0.2,0.2l-2.7,8.6h-1.2l2.4-7.9h-2.3c-0.2,0-0.3,0-0.4,0.1s-0.2,0.1-0.3,0.2s-0.2,0.2-0.3,0.3
			s-0.2,0.3-0.3,0.5l-0.7-0.2l0.8-1.9H164.9z"/>
	</g>
	<g class="st1">
		<path d="M191.9,129.2l2.6-1.4v7.8c0,0.2,0,0.4,0.1,0.5s0.1,0.2,0.2,0.3s0.2,0.1,0.4,0.1s0.4,0,0.6,0v0.6H192v-0.6
			c0.2,0,0.4,0,0.5,0s0.3,0,0.4-0.1s0.2-0.1,0.2-0.3s0.1-0.3,0.1-0.5V130c0-0.2,0-0.3,0-0.4s0-0.2-0.1-0.2s-0.2,0-0.4,0.1
			s-0.5,0.2-0.8,0.3V129.2z"/>
		<path d="M202.7,130.2c0,0.3,0,0.5-0.1,0.8s-0.2,0.4-0.3,0.6s-0.3,0.3-0.4,0.5s-0.3,0.2-0.5,0.3c0.5,0.2,0.9,0.5,1.2,0.8
			s0.4,0.8,0.4,1.4c0,0.4-0.1,0.7-0.2,1.1s-0.3,0.6-0.6,0.8s-0.6,0.4-0.9,0.5s-0.7,0.2-1.1,0.2c-0.4,0-0.7-0.1-1-0.2
			s-0.6-0.3-0.9-0.5s-0.4-0.5-0.6-0.7s-0.2-0.6-0.2-0.9c0-0.3,0-0.6,0.1-0.8s0.2-0.5,0.4-0.7s0.3-0.4,0.5-0.5s0.4-0.3,0.6-0.3
			c-0.2-0.1-0.4-0.2-0.5-0.3s-0.3-0.3-0.5-0.5s-0.2-0.4-0.3-0.6s-0.1-0.5-0.1-0.8c0-0.3,0.1-0.6,0.2-0.9s0.3-0.5,0.5-0.7
			s0.5-0.4,0.8-0.5s0.7-0.2,1.1-0.2c0.3,0,0.6,0,0.9,0.1s0.6,0.2,0.8,0.4s0.4,0.4,0.6,0.7S202.7,129.8,202.7,130.2z M198.6,134.9
			c0,0.3,0,0.5,0.1,0.7s0.2,0.4,0.4,0.5s0.3,0.2,0.5,0.3s0.4,0.1,0.6,0.1c0.2,0,0.4,0,0.6-0.1s0.4-0.2,0.5-0.3s0.3-0.3,0.4-0.5
			s0.1-0.4,0.1-0.7c0-0.3,0-0.6-0.1-0.8s-0.2-0.4-0.4-0.5s-0.4-0.3-0.6-0.4s-0.5-0.2-0.8-0.4c-0.4,0.2-0.8,0.5-1,0.8
			S198.6,134.4,198.6,134.9z M198.9,130.2c0,0.2,0,0.4,0.1,0.6s0.2,0.4,0.4,0.5s0.3,0.3,0.5,0.4s0.4,0.2,0.7,0.3
			c0.3-0.2,0.5-0.4,0.7-0.7s0.3-0.6,0.3-1c0-0.3,0-0.5-0.1-0.8s-0.2-0.4-0.3-0.5s-0.3-0.3-0.4-0.3s-0.3-0.1-0.5-0.1
			c-0.2,0-0.3,0-0.5,0.1s-0.3,0.2-0.4,0.3s-0.2,0.3-0.3,0.5S198.9,129.9,198.9,130.2z"/>
	</g>
	<g class="st1">
		<path d="M229.9,129.2l2.6-1.4v7.8c0,0.2,0,0.4,0.1,0.5s0.1,0.2,0.2,0.3s0.2,0.1,0.4,0.1s0.4,0,0.6,0v0.6H230v-0.6
			c0.2,0,0.4,0,0.5,0s0.3,0,0.4-0.1s0.2-0.1,0.2-0.3s0.1-0.3,0.1-0.5V130c0-0.2,0-0.3,0-0.4s0-0.2-0.1-0.2s-0.2,0-0.4,0.1
			s-0.5,0.2-0.8,0.3V129.2z"/>
		<path d="M239.5,133.4c-0.2,0.2-0.3,0.3-0.5,0.4s-0.4,0.2-0.7,0.2c-0.4,0-0.8,0-1.1-0.2s-0.7-0.3-0.9-0.6s-0.5-0.6-0.6-1
			s-0.2-0.8-0.2-1.2c0-0.4,0.1-0.8,0.2-1.2s0.3-0.7,0.5-0.9s0.5-0.5,0.8-0.6s0.7-0.2,1.1-0.2c0.4,0,0.8,0.1,1.2,0.3s0.7,0.5,0.9,0.8
			s0.4,0.7,0.6,1.2s0.2,1,0.2,1.5c0,0.7-0.1,1.4-0.4,2.1s-0.6,1.2-1.1,1.7s-1,0.9-1.7,1.2s-1.4,0.4-2.3,0.4l0-0.6
			c0.5,0,1-0.2,1.4-0.3s0.8-0.4,1.1-0.6s0.6-0.6,0.9-0.9S239.4,134,239.5,133.4z M239.6,131.6c0-0.4,0-0.7-0.1-1.1s-0.2-0.7-0.3-0.9
			s-0.3-0.5-0.5-0.7s-0.4-0.2-0.7-0.2c-0.2,0-0.4,0.1-0.6,0.2s-0.3,0.3-0.4,0.5s-0.2,0.5-0.2,0.8s-0.1,0.6,0,0.9
			c0,0.3,0.1,0.6,0.2,0.9s0.2,0.5,0.3,0.7s0.3,0.4,0.5,0.5s0.4,0.2,0.6,0.1c0.3-0.1,0.6-0.2,0.9-0.5S239.6,132.1,239.6,131.6z"/>
	</g>
	<g class="st1">
		<path d="M1,175v-0.4c0.2-0.3,0.5-0.6,0.8-0.9s0.6-0.7,0.8-1s0.5-0.7,0.8-0.9s0.4-0.5,0.6-0.7c0.1-0.2,0.3-0.4,0.4-0.6
			s0.2-0.4,0.3-0.6s0.2-0.4,0.3-0.7s0.1-0.4,0.1-0.6c0-0.2,0-0.4-0.1-0.6s-0.1-0.4-0.3-0.5s-0.3-0.3-0.5-0.4s-0.4-0.2-0.7-0.2
			c-0.2,0-0.4,0-0.6,0.1s-0.4,0.2-0.5,0.4s-0.3,0.4-0.4,0.6s-0.2,0.5-0.3,0.8L1,168.7c0.1-0.3,0.2-0.7,0.3-1s0.3-0.6,0.6-0.8
			s0.5-0.4,0.8-0.6s0.7-0.2,1.1-0.2c0.4,0,0.7,0.1,1,0.2s0.6,0.3,0.8,0.5s0.4,0.5,0.5,0.8s0.2,0.6,0.2,0.9c0,0.3,0,0.5-0.1,0.8
			S6,169.8,5.9,170s-0.2,0.5-0.4,0.7s-0.3,0.4-0.4,0.6c-0.2,0.3-0.4,0.5-0.6,0.8s-0.4,0.5-0.6,0.7s-0.4,0.5-0.6,0.7
			s-0.4,0.5-0.6,0.7h2.1c0.2,0,0.3,0,0.4,0s0.2,0,0.3-0.1s0.1-0.1,0.2-0.2s0.2-0.3,0.3-0.5h0.7L6.2,175H1z"/>
		<path d="M7.3,170.7c0-0.6,0.1-1.2,0.2-1.7s0.3-1,0.5-1.5s0.5-0.8,0.9-1s0.8-0.4,1.3-0.4s0.9,0.1,1.3,0.4s0.7,0.6,0.9,1
			s0.4,0.9,0.5,1.5s0.2,1.1,0.2,1.7c0,0.6-0.1,1.2-0.2,1.7s-0.3,1-0.5,1.5s-0.5,0.8-0.9,1s-0.8,0.4-1.3,0.4c-0.5,0-0.9-0.1-1.3-0.4
			s-0.7-0.6-0.9-1s-0.4-0.9-0.5-1.5S7.3,171.3,7.3,170.7z M10.2,174.6c0.2,0,0.5-0.1,0.6-0.3s0.3-0.5,0.5-0.8s0.2-0.8,0.3-1.2
			s0.1-1,0.1-1.6c0-0.6,0-1.1-0.1-1.6s-0.2-0.9-0.3-1.3s-0.3-0.6-0.5-0.8s-0.4-0.3-0.6-0.3s-0.4,0.1-0.6,0.3s-0.4,0.5-0.5,0.8
			s-0.2,0.8-0.3,1.3s-0.1,1-0.1,1.6c0,0.6,0,1.1,0.1,1.6s0.2,0.9,0.3,1.2s0.3,0.6,0.5,0.8S10,174.6,10.2,174.6z"/>
	</g>
	<g class="st1">
		<path d="M39,175v-0.4c0.2-0.3,0.5-0.6,0.8-0.9s0.6-0.7,0.8-1s0.5-0.7,0.8-0.9s0.4-0.5,0.6-0.7c0.1-0.2,0.3-0.4,0.4-0.6
			s0.2-0.4,0.3-0.6s0.2-0.4,0.3-0.7s0.1-0.4,0.1-0.6c0-0.2,0-0.4-0.1-0.6s-0.1-0.4-0.3-0.5s-0.3-0.3-0.5-0.4s-0.4-0.2-0.7-0.2
			c-0.2,0-0.4,0-0.6,0.1s-0.4,0.2-0.5,0.4s-0.3,0.4-0.4,0.6s-0.2,0.5-0.3,0.8l-0.8-0.2c0.1-0.3,0.2-0.7,0.3-1s0.3-0.6,0.6-0.8
			s0.5-0.4,0.8-0.6s0.7-0.2,1.1-0.2c0.4,0,0.7,0.1,1,0.2s0.6,0.3,0.8,0.5s0.4,0.5,0.5,0.8s0.2,0.6,0.2,0.9c0,0.3,0,0.5-0.1,0.8
			s-0.2,0.5-0.3,0.8s-0.2,0.5-0.4,0.7s-0.3,0.4-0.4,0.6c-0.2,0.3-0.4,0.5-0.6,0.8s-0.4,0.5-0.6,0.7s-0.4,0.5-0.6,0.7
			s-0.4,0.5-0.6,0.7h2.1c0.2,0,0.3,0,0.4,0s0.2,0,0.3-0.1s0.1-0.1,0.2-0.2s0.2-0.3,0.3-0.5h0.7l-0.7,1.7H39z"/>
		<path d="M46.4,167.2l2.6-1.4v7.8c0,0.2,0,0.4,0.1,0.5s0.1,0.2,0.2,0.3s0.2,0.1,0.4,0.1s0.4,0,0.6,0v0.6h-3.8v-0.6
			c0.2,0,0.4,0,0.5,0s0.3,0,0.4-0.1s0.2-0.1,0.2-0.3s0.1-0.3,0.1-0.5V168c0-0.2,0-0.3,0-0.4s0-0.2-0.1-0.2s-0.2,0-0.4,0.1
			s-0.5,0.2-0.8,0.3V167.2z"/>
	</g>
	<g class="st1">
		<path d="M77,175v-0.4c0.2-0.3,0.5-0.6,0.8-0.9s0.6-0.7,0.8-1s0.5-0.7,0.8-0.9s0.4-0.5,0.6-0.7c0.1-0.2,0.3-0.4,0.4-0.6
			s0.2-0.4,0.3-0.6s0.2-0.4,0.3-0.7s0.1-0.4,0.1-0.6c0-0.2,0-0.4-0.1-0.6s-0.1-0.4-0.3-0.5s-0.3-0.3-0.5-0.4s-0.4-0.2-0.7-0.2
			c-0.2,0-0.4,0-0.6,0.1s-0.4,0.2-0.5,0.4s-0.3,0.4-0.4,0.6s-0.2,0.5-0.3,0.8l-0.8-0.2c0.1-0.3,0.2-0.7,0.3-1s0.3-0.6,0.6-0.8
			s0.5-0.4,0.8-0.6s0.7-0.2,1.1-0.2c0.4,0,0.7,0.1,1,0.2s0.6,0.3,0.8,0.5s0.4,0.5,0.5,0.8s0.2,0.6,0.2,0.9c0,0.3,0,0.5-0.1,0.8
			s-0.2,0.5-0.3,0.8s-0.2,0.5-0.4,0.7s-0.3,0.4-0.4,0.6c-0.2,0.3-0.4,0.5-0.6,0.8s-0.4,0.5-0.6,0.7s-0.4,0.5-0.6,0.7
			s-0.4,0.5-0.6,0.7h2.1c0.2,0,0.3,0,0.4,0s0.2,0,0.3-0.1s0.1-0.1,0.2-0.2s0.2-0.3,0.3-0.5h0.7l-0.7,1.7H77z"/>
		<path d="M83.5,175v-0.4c0.2-0.3,0.5-0.6,0.8-0.9s0.6-0.7,0.8-1s0.5-0.7,0.8-0.9s0.4-0.5,0.6-0.7c0.1-0.2,0.3-0.4,0.4-0.6
			s0.2-0.4,0.3-0.6s0.2-0.4,0.3-0.7s0.1-0.4,0.1-0.6c0-0.2,0-0.4-0.1-0.6s-0.1-0.4-0.3-0.5s-0.3-0.3-0.5-0.4s-0.4-0.2-0.7-0.2
			c-0.2,0-0.4,0-0.6,0.1s-0.4,0.2-0.5,0.4s-0.3,0.4-0.4,0.6s-0.2,0.5-0.3,0.8l-0.8-0.2c0.1-0.3,0.2-0.7,0.3-1s0.3-0.6,0.6-0.8
			s0.5-0.4,0.8-0.6s0.7-0.2,1.1-0.2c0.4,0,0.7,0.1,1,0.2s0.6,0.3,0.8,0.5s0.4,0.5,0.5,0.8s0.2,0.6,0.2,0.9c0,0.3,0,0.5-0.1,0.8
			s-0.2,0.5-0.3,0.8s-0.2,0.5-0.4,0.7s-0.3,0.4-0.4,0.6c-0.2,0.3-0.4,0.5-0.6,0.8s-0.4,0.5-0.6,0.7s-0.4,0.5-0.6,0.7
			s-0.4,0.5-0.6,0.7h2.1c0.2,0,0.3,0,0.4,0s0.2,0,0.3-0.1s0.1-0.1,0.2-0.2s0.2-0.3,0.3-0.5h0.7l-0.7,1.7H83.5z"/>
	</g>
	<g class="st1">
		<path d="M115,175v-0.4c0.2-0.3,0.5-0.6,0.8-0.9s0.6-0.7,0.8-1s0.5-0.7,0.8-0.9s0.4-0.5,0.6-0.7c0.1-0.2,0.3-0.4,0.4-0.6
			s0.2-0.4,0.3-0.6s0.2-0.4,0.3-0.7s0.1-0.4,0.1-0.6c0-0.2,0-0.4-0.1-0.6s-0.1-0.4-0.3-0.5s-0.3-0.3-0.5-0.4s-0.4-0.2-0.7-0.2
			c-0.2,0-0.4,0-0.6,0.1s-0.4,0.2-0.5,0.4s-0.3,0.4-0.4,0.6s-0.2,0.5-0.3,0.8l-0.8-0.2c0.1-0.3,0.2-0.7,0.3-1s0.3-0.6,0.6-0.8
			s0.5-0.4,0.8-0.6s0.7-0.2,1.1-0.2c0.4,0,0.7,0.1,1,0.2s0.6,0.3,0.8,0.5s0.4,0.5,0.5,0.8s0.2,0.6,0.2,0.9c0,0.3,0,0.5-0.1,0.8
			s-0.2,0.5-0.3,0.8s-0.2,0.5-0.4,0.7s-0.3,0.4-0.4,0.6c-0.2,0.3-0.4,0.5-0.6,0.8s-0.4,0.5-0.6,0.7s-0.4,0.5-0.6,0.7
			s-0.4,0.5-0.6,0.7h2.1c0.2,0,0.3,0,0.4,0s0.2,0,0.3-0.1s0.1-0.1,0.2-0.2s0.2-0.3,0.3-0.5h0.7l-0.7,1.7H115z"/>
		<path d="M126.5,167.9c0,0.2,0,0.4-0.1,0.6c-0.1,0.2-0.2,0.4-0.3,0.6s-0.3,0.3-0.4,0.5s-0.4,0.3-0.6,0.4c0.2,0.1,0.5,0.2,0.7,0.3
			s0.4,0.3,0.6,0.5s0.3,0.4,0.4,0.7c0.1,0.3,0.2,0.5,0.2,0.8c0,0.4-0.1,0.8-0.2,1.1c-0.1,0.3-0.3,0.6-0.5,0.8s-0.5,0.4-0.8,0.6
			s-0.7,0.3-1.1,0.4c-0.3,0.1-0.6,0.1-0.9,0.1s-0.6,0-0.8-0.1c-0.2-0.1-0.4-0.2-0.6-0.3s-0.2-0.3-0.2-0.4c0-0.1,0.1-0.3,0.2-0.4
			s0.3-0.2,0.5-0.2c0.2,0,0.5,0.1,0.6,0.2s0.3,0.2,0.5,0.3c0.1,0.1,0.3,0.2,0.4,0.2s0.2,0,0.3,0c0.2,0,0.4-0.1,0.5-0.1
			s0.3-0.2,0.5-0.4s0.3-0.3,0.4-0.5s0.1-0.5,0.2-0.7c0-0.8-0.2-1.3-0.6-1.6s-1.1-0.4-2.1-0.3v-0.6c0.3-0.1,0.6-0.2,0.9-0.3
			s0.5-0.3,0.7-0.5s0.3-0.4,0.4-0.6s0.1-0.5,0.1-0.7c0-0.4-0.1-0.7-0.3-0.9s-0.4-0.3-0.8-0.3c-0.3,0-0.7,0.1-1,0.4s-0.5,0.6-0.6,1.1
			l-0.8-0.1c0.1-0.3,0.2-0.6,0.4-0.9s0.4-0.5,0.6-0.7s0.5-0.4,0.8-0.5s0.6-0.2,1-0.2c0.3,0,0.6,0,0.8,0.1s0.5,0.2,0.7,0.4
			c0.2,0.2,0.3,0.4,0.5,0.6C126.4,167.4,126.5,167.6,126.5,167.9z"/>
	</g>
	<g class="st1">
		<path d="M153,175v-0.4c0.2-0.3,0.5-0.6,0.8-0.9s0.6-0.7,0.8-1s0.5-0.7,0.8-0.9s0.4-0.5,0.6-0.7c0.1-0.2,0.3-0.4,0.4-0.6
			s0.2-0.4,0.3-0.6s0.2-0.4,0.3-0.7s0.1-0.4,0.1-0.6c0-0.2,0-0.4-0.1-0.6s-0.1-0.4-0.3-0.5s-0.3-0.3-0.5-0.4s-0.4-0.2-0.7-0.2
			c-0.2,0-0.4,0-0.6,0.1s-0.4,0.2-0.5,0.4s-0.3,0.4-0.4,0.6s-0.2,0.5-0.3,0.8l-0.8-0.2c0.1-0.3,0.2-0.7,0.3-1s0.3-0.6,0.6-0.8
			s0.5-0.4,0.8-0.6s0.7-0.2,1.1-0.2c0.4,0,0.7,0.1,1,0.2s0.6,0.3,0.8,0.5s0.4,0.5,0.5,0.8s0.2,0.6,0.2,0.9c0,0.3,0,0.5-0.1,0.8
			s-0.2,0.5-0.3,0.8s-0.2,0.5-0.4,0.7s-0.3,0.4-0.4,0.6c-0.2,0.3-0.4,0.5-0.6,0.8s-0.4,0.5-0.6,0.7s-0.4,0.5-0.6,0.7
			s-0.4,0.5-0.6,0.7h2.1c0.2,0,0.3,0,0.4,0s0.2,0,0.3-0.1s0.1-0.1,0.2-0.2s0.2-0.3,0.3-0.5h0.7l-0.7,1.7H153z"/>
		<path d="M163.1,166h0.9v6h1.4v0.8H164v2.3h-1.3v-2.3h-3.5v-0.7L163.1,166z M162.7,168.3l-2.3,3.6h2.3V168.3z"/>
	</g>
	<g class="st1">
		<path d="M191,175v-0.4c0.2-0.3,0.5-0.6,0.8-0.9s0.6-0.7,0.8-1s0.5-0.7,0.8-0.9s0.4-0.5,0.6-0.7c0.1-0.2,0.3-0.4,0.4-0.6
			s0.2-0.4,0.3-0.6s0.2-0.4,0.3-0.7s0.1-0.4,0.1-0.6c0-0.2,0-0.4-0.1-0.6s-0.1-0.4-0.3-0.5s-0.3-0.3-0.5-0.4s-0.4-0.2-0.7-0.2
			c-0.2,0-0.4,0-0.6,0.1s-0.4,0.2-0.5,0.4s-0.3,0.4-0.4,0.6s-0.2,0.5-0.3,0.8l-0.8-0.2c0.1-0.3,0.2-0.7,0.3-1s0.3-0.6,0.6-0.8
			s0.5-0.4,0.8-0.6s0.7-0.2,1.1-0.2c0.4,0,0.7,0.1,1,0.2s0.6,0.3,0.8,0.5s0.4,0.5,0.5,0.8s0.2,0.6,0.2,0.9c0,0.3,0,0.5-0.1,0.8
			s-0.2,0.5-0.3,0.8s-0.2,0.5-0.4,0.7s-0.3,0.4-0.4,0.6c-0.2,0.3-0.4,0.5-0.6,0.8s-0.4,0.5-0.6,0.7s-0.4,0.5-0.6,0.7
			s-0.4,0.5-0.6,0.7h2.1c0.2,0,0.3,0,0.4,0s0.2,0,0.3-0.1s0.1-0.1,0.2-0.2s0.2-0.3,0.3-0.5h0.7l-0.7,1.7H191z"/>
		<path d="M199.5,175.2c-0.2,0-0.4,0-0.7-0.1s-0.5-0.1-0.7-0.2s-0.4-0.2-0.5-0.3s-0.2-0.2-0.2-0.4c0-0.1,0.1-0.3,0.2-0.4
			s0.3-0.2,0.5-0.2c0.2,0,0.4,0,0.6,0.1s0.3,0.2,0.5,0.3c0.1,0.1,0.2,0.1,0.4,0.2s0.3,0.1,0.4,0.1c0.2,0,0.4-0.1,0.6-0.2
			s0.3-0.3,0.5-0.5s0.2-0.4,0.3-0.7s0.1-0.6,0.1-0.9c0-0.9-0.2-1.5-0.7-1.9s-1.2-0.6-2.3-0.6c-0.2,0-0.3,0-0.4-0.1s-0.1-0.2-0.1-0.3
			l1.2-3h3.6l-0.2,0.9h-2.7l-0.6,1.6c0.5,0,1,0,1.4,0.2s0.8,0.3,1.1,0.6s0.5,0.6,0.7,1s0.3,0.8,0.3,1.3c0,0.4-0.1,0.9-0.2,1.3
			s-0.4,0.8-0.7,1.1s-0.6,0.6-1,0.7S199.9,175.2,199.5,175.2z"/>
	</g>
	<g class="st1">
		<path d="M229,175v-0.4c0.2-0.3,0.5-0.6,0.8-0.9s0.6-0.7,0.8-1s0.5-0.7,0.8-0.9s0.4-0.5,0.6-0.7c0.1-0.2,0.3-0.4,0.4-0.6
			s0.2-0.4,0.3-0.6s0.2-0.4,0.3-0.7s0.1-0.4,0.1-0.6c0-0.2,0-0.4-0.1-0.6s-0.1-0.4-0.3-0.5s-0.3-0.3-0.5-0.4s-0.4-0.2-0.7-0.2
			c-0.2,0-0.4,0-0.6,0.1s-0.4,0.2-0.5,0.4s-0.3,0.4-0.4,0.6s-0.2,0.5-0.3,0.8l-0.8-0.2c0.1-0.3,0.2-0.7,0.3-1s0.3-0.6,0.6-0.8
			s0.5-0.4,0.8-0.6s0.7-0.2,1.1-0.2c0.4,0,0.7,0.1,1,0.2s0.6,0.3,0.8,0.5s0.4,0.5,0.5,0.8s0.2,0.6,0.2,0.9c0,0.3,0,0.5-0.1,0.8
			s-0.2,0.5-0.3,0.8s-0.2,0.5-0.4,0.7s-0.3,0.4-0.4,0.6c-0.2,0.3-0.4,0.5-0.6,0.8s-0.4,0.5-0.6,0.7s-0.4,0.5-0.6,0.7
			s-0.4,0.5-0.6,0.7h2.1c0.2,0,0.3,0,0.4,0s0.2,0,0.3-0.1s0.1-0.1,0.2-0.2s0.2-0.3,0.3-0.5h0.7l-0.7,1.7H229z"/>
		<path d="M237,169.8c0.1-0.1,0.3-0.2,0.5-0.3s0.4-0.2,0.6-0.2c0.4,0,0.8,0,1.1,0.1s0.7,0.3,0.9,0.6s0.5,0.6,0.6,1s0.2,0.8,0.2,1.2
			c0,0.4-0.1,0.8-0.2,1.2s-0.3,0.7-0.5,0.9s-0.5,0.5-0.8,0.6s-0.7,0.2-1.1,0.2c-0.4,0-0.8-0.1-1.2-0.3s-0.7-0.5-0.9-0.8
			s-0.4-0.7-0.6-1.2s-0.2-1-0.2-1.5c0-0.7,0.1-1.4,0.4-2.1s0.6-1.2,1.1-1.7s1-0.9,1.7-1.2s1.4-0.4,2.3-0.4l0,0.5
			c-0.5,0-0.9,0.1-1.4,0.3s-0.8,0.4-1.1,0.7s-0.6,0.6-0.8,0.9S237.2,169.3,237,169.8z M236.9,171.7c0,0.4,0,0.7,0.1,1.1
			s0.2,0.6,0.3,0.9s0.3,0.5,0.5,0.6s0.4,0.2,0.7,0.2c0.2,0,0.4-0.1,0.6-0.2s0.3-0.3,0.4-0.5s0.2-0.5,0.2-0.7s0.1-0.6,0-0.8
			c0-0.3-0.1-0.6-0.2-0.9s-0.2-0.5-0.3-0.7s-0.3-0.4-0.5-0.5s-0.4-0.2-0.6-0.1c-0.3,0-0.6,0.2-0.8,0.5S236.9,171.2,236.9,171.7z"/>
	</g>
	<g class="st1">
		<path d="M1,213v-0.4c0.2-0.3,0.5-0.6,0.8-0.9s0.6-0.7,0.8-1s0.5-0.7,0.8-0.9s0.4-0.5,0.6-0.7c0.1-0.2,0.3-0.4,0.4-0.6
			s0.2-0.4,0.3-0.6s0.2-0.4,0.3-0.7s0.1-0.4,0.1-0.6c0-0.2,0-0.4-0.1-0.6s-0.1-0.4-0.3-0.5s-0.3-0.3-0.5-0.4s-0.4-0.2-0.7-0.2
			c-0.2,0-0.4,0-0.6,0.1s-0.4,0.2-0.5,0.4s-0.3,0.4-0.4,0.6s-0.2,0.5-0.3,0.8L1,206.7c0.1-0.3,0.2-0.7,0.3-1s0.3-0.6,0.6-0.8
			s0.5-0.4,0.8-0.6s0.7-0.2,1.1-0.2c0.4,0,0.7,0.1,1,0.2s0.6,0.3,0.8,0.5s0.4,0.5,0.5,0.8s0.2,0.6,0.2,0.9c0,0.3,0,0.5-0.1,0.8
			S6,207.8,5.9,208s-0.2,0.5-0.4,0.7s-0.3,0.4-0.4,0.6c-0.2,0.3-0.4,0.5-0.6,0.8s-0.4,0.5-0.6,0.7s-0.4,0.5-0.6,0.7
			s-0.4,0.5-0.6,0.7h2.1c0.2,0,0.3,0,0.4,0s0.2,0,0.3-0.1s0.1-0.1,0.2-0.2s0.2-0.3,0.3-0.5h0.7L6.2,213H1z"/>
		<path d="M12.9,204.2l0.2,0.2l-2.7,8.6H9.2l2.4-7.9H9.4c-0.2,0-0.3,0-0.4,0.1s-0.2,0.1-0.3,0.2s-0.2,0.2-0.3,0.3S8.1,206,8,206.2
			L7.4,206l0.8-1.9H12.9z"/>
	</g>
	<g class="st1">
		<path d="M39,213v-0.4c0.2-0.3,0.5-0.6,0.8-0.9s0.6-0.7,0.8-1s0.5-0.7,0.8-0.9s0.4-0.5,0.6-0.7c0.1-0.2,0.3-0.4,0.4-0.6
			s0.2-0.4,0.3-0.6s0.2-0.4,0.3-0.7s0.1-0.4,0.1-0.6c0-0.2,0-0.4-0.1-0.6s-0.1-0.4-0.3-0.5s-0.3-0.3-0.5-0.4s-0.4-0.2-0.7-0.2
			c-0.2,0-0.4,0-0.6,0.1s-0.4,0.2-0.5,0.4s-0.3,0.4-0.4,0.6s-0.2,0.5-0.3,0.8l-0.8-0.2c0.1-0.3,0.2-0.7,0.3-1s0.3-0.6,0.6-0.8
			s0.5-0.4,0.8-0.6s0.7-0.2,1.1-0.2c0.4,0,0.7,0.1,1,0.2s0.6,0.3,0.8,0.5s0.4,0.5,0.5,0.8s0.2,0.6,0.2,0.9c0,0.3,0,0.5-0.1,0.8
			s-0.2,0.5-0.3,0.8s-0.2,0.5-0.4,0.7s-0.3,0.4-0.4,0.6c-0.2,0.3-0.4,0.5-0.6,0.8s-0.4,0.5-0.6,0.7s-0.4,0.5-0.6,0.7
			s-0.4,0.5-0.6,0.7h2.1c0.2,0,0.3,0,0.4,0s0.2,0,0.3-0.1s0.1-0.1,0.2-0.2s0.2-0.3,0.3-0.5h0.7l-0.7,1.7H39z"/>
		<path d="M50.7,206.2c0,0.3,0,0.5-0.1,0.8s-0.2,0.4-0.3,0.6s-0.3,0.3-0.4,0.5s-0.3,0.2-0.5,0.3c0.5,0.2,0.9,0.5,1.2,0.8
			s0.4,0.8,0.4,1.4c0,0.4-0.1,0.7-0.2,1.1s-0.3,0.6-0.6,0.8s-0.6,0.4-0.9,0.5s-0.7,0.2-1.1,0.2c-0.4,0-0.7-0.1-1-0.2
			s-0.6-0.3-0.9-0.5s-0.4-0.5-0.6-0.7s-0.2-0.6-0.2-0.9c0-0.3,0-0.6,0.1-0.8s0.2-0.5,0.4-0.7s0.3-0.4,0.5-0.5s0.4-0.3,0.6-0.3
			c-0.2-0.1-0.4-0.2-0.5-0.3s-0.3-0.3-0.5-0.5s-0.2-0.4-0.3-0.6s-0.1-0.5-0.1-0.8c0-0.3,0.1-0.6,0.2-0.9s0.3-0.5,0.5-0.7
			s0.5-0.4,0.8-0.5s0.7-0.2,1.1-0.2c0.3,0,0.6,0,0.9,0.1s0.6,0.2,0.8,0.4s0.4,0.4,0.6,0.7S50.7,205.8,50.7,206.2z M46.6,210.9
			c0,0.3,0,0.5,0.1,0.7s0.2,0.4,0.4,0.5s0.3,0.2,0.5,0.3s0.4,0.1,0.6,0.1c0.2,0,0.4,0,0.6-0.1s0.4-0.2,0.5-0.3s0.3-0.3,0.4-0.5
			s0.1-0.4,0.1-0.7c0-0.3,0-0.6-0.1-0.8s-0.2-0.4-0.4-0.5s-0.4-0.3-0.6-0.4s-0.5-0.2-0.8-0.4c-0.4,0.2-0.8,0.5-1,0.8
			S46.6,210.4,46.6,210.9z M46.9,206.2c0,0.2,0,0.4,0.1,0.6s0.2,0.4,0.4,0.5s0.3,0.3,0.5,0.4s0.4,0.2,0.7,0.3
			c0.3-0.2,0.5-0.4,0.7-0.7s0.3-0.6,0.3-1c0-0.3,0-0.5-0.1-0.8s-0.2-0.4-0.3-0.5s-0.3-0.3-0.4-0.3s-0.3-0.1-0.5-0.1
			c-0.2,0-0.3,0-0.5,0.1s-0.3,0.2-0.4,0.3s-0.2,0.3-0.3,0.5S46.9,205.9,46.9,206.2z"/>
	</g>
	<g class="st1">
		<path d="M77,213v-0.4c0.2-0.3,0.5-0.6,0.8-0.9s0.6-0.7,0.8-1s0.5-0.7,0.8-0.9s0.4-0.5,0.6-0.7c0.1-0.2,0.3-0.4,0.4-0.6
			s0.2-0.4,0.3-0.6s0.2-0.4,0.3-0.7s0.1-0.4,0.1-0.6c0-0.2,0-0.4-0.1-0.6s-0.1-0.4-0.3-0.5s-0.3-0.3-0.5-0.4s-0.4-0.2-0.7-0.2
			c-0.2,0-0.4,0-0.6,0.1s-0.4,0.2-0.5,0.4s-0.3,0.4-0.4,0.6s-0.2,0.5-0.3,0.8l-0.8-0.2c0.1-0.3,0.2-0.7,0.3-1s0.3-0.6,0.6-0.8
			s0.5-0.4,0.8-0.6s0.7-0.2,1.1-0.2c0.4,0,0.7,0.1,1,0.2s0.6,0.3,0.8,0.5s0.4,0.5,0.5,0.8s0.2,0.6,0.2,0.9c0,0.3,0,0.5-0.1,0.8
			s-0.2,0.5-0.3,0.8s-0.2,0.5-0.4,0.7s-0.3,0.4-0.4,0.6c-0.2,0.3-0.4,0.5-0.6,0.8s-0.4,0.5-0.6,0.7s-0.4,0.5-0.6,0.7
			s-0.4,0.5-0.6,0.7h2.1c0.2,0,0.3,0,0.4,0s0.2,0,0.3-0.1s0.1-0.1,0.2-0.2s0.2-0.3,0.3-0.5h0.7l-0.7,1.7H77z"/>
		<path d="M87.5,209.4c-0.2,0.2-0.3,0.3-0.5,0.4s-0.4,0.2-0.7,0.2c-0.4,0-0.8,0-1.1-0.2s-0.7-0.3-0.9-0.6s-0.5-0.6-0.6-1
			s-0.2-0.8-0.2-1.2c0-0.4,0.1-0.8,0.2-1.2s0.3-0.7,0.5-0.9s0.5-0.5,0.8-0.6s0.7-0.2,1.1-0.2c0.4,0,0.8,0.1,1.2,0.3s0.7,0.5,0.9,0.8
			s0.4,0.7,0.6,1.2s0.2,1,0.2,1.5c0,0.7-0.1,1.4-0.4,2.1s-0.6,1.2-1.1,1.7s-1,0.9-1.7,1.2s-1.4,0.4-2.3,0.4l0-0.6
			c0.5,0,1-0.2,1.4-0.3s0.8-0.4,1.1-0.6s0.6-0.6,0.9-0.9S87.4,210,87.5,209.4z M87.6,207.6c0-0.4,0-0.7-0.1-1.1s-0.2-0.7-0.3-0.9
			s-0.3-0.5-0.5-0.7s-0.4-0.2-0.7-0.2c-0.2,0-0.4,0.1-0.6,0.2s-0.3,0.3-0.4,0.5s-0.2,0.5-0.2,0.8s-0.1,0.6,0,0.9
			c0,0.3,0.1,0.6,0.2,0.9s0.2,0.5,0.3,0.7s0.3,0.4,0.5,0.5s0.4,0.2,0.6,0.1c0.3-0.1,0.6-0.2,0.9-0.5S87.6,208.1,87.6,207.6z"/>
	</g>
	<g class="st1">
		<path d="M120,205.9c0,0.2,0,0.4-0.1,0.6c-0.1,0.2-0.2,0.4-0.3,0.6s-0.3,0.3-0.4,0.5s-0.4,0.3-0.6,0.4c0.2,0.1,0.5,0.2,0.7,0.3
			s0.4,0.3,0.6,0.5s0.3,0.4,0.4,0.7c0.1,0.3,0.2,0.5,0.2,0.8c0,0.4-0.1,0.8-0.2,1.1c-0.1,0.3-0.3,0.6-0.5,0.8s-0.5,0.4-0.8,0.6
			s-0.7,0.3-1.1,0.4c-0.3,0.1-0.6,0.1-0.9,0.1s-0.6,0-0.8-0.1c-0.2-0.1-0.4-0.2-0.6-0.3s-0.2-0.3-0.2-0.4c0-0.1,0.1-0.3,0.2-0.4
			s0.3-0.2,0.5-0.2c0.2,0,0.5,0.1,0.6,0.2s0.3,0.2,0.5,0.3c0.1,0.1,0.3,0.2,0.4,0.2s0.2,0,0.3,0c0.2,0,0.4-0.1,0.5-0.1
			s0.3-0.2,0.5-0.4s0.3-0.3,0.4-0.5s0.1-0.5,0.2-0.7c0-0.8-0.2-1.3-0.6-1.6s-1.1-0.4-2.1-0.3v-0.6c0.3-0.1,0.6-0.2,0.9-0.3
			s0.5-0.3,0.7-0.5s0.3-0.4,0.4-0.6s0.1-0.5,0.1-0.7c0-0.4-0.1-0.7-0.3-0.9s-0.4-0.3-0.8-0.3c-0.3,0-0.7,0.1-1,0.4s-0.5,0.6-0.6,1.1
			l-0.8-0.1c0.1-0.3,0.2-0.6,0.4-0.9s0.4-0.5,0.6-0.7s0.5-0.4,0.8-0.5s0.6-0.2,1-0.2c0.3,0,0.6,0,0.8,0.1s0.5,0.2,0.7,0.4
			c0.2,0.2,0.3,0.4,0.5,0.6C120,205.4,120,205.6,120,205.9z"/>
		<path d="M121.3,208.7c0-0.6,0.1-1.2,0.2-1.7s0.3-1,0.5-1.5s0.5-0.8,0.9-1s0.8-0.4,1.3-0.4s0.9,0.1,1.3,0.4s0.7,0.6,0.9,1
			s0.4,0.9,0.5,1.5s0.2,1.1,0.2,1.7c0,0.6-0.1,1.2-0.2,1.7s-0.3,1-0.5,1.5s-0.5,0.8-0.9,1s-0.8,0.4-1.3,0.4c-0.5,0-0.9-0.1-1.3-0.4
			s-0.7-0.6-0.9-1s-0.4-0.9-0.5-1.5S121.3,209.3,121.3,208.7z M124.2,212.6c0.2,0,0.5-0.1,0.6-0.3s0.3-0.5,0.5-0.8s0.2-0.8,0.3-1.2
			s0.1-1,0.1-1.6c0-0.6,0-1.1-0.1-1.6s-0.2-0.9-0.3-1.3s-0.3-0.6-0.5-0.8s-0.4-0.3-0.6-0.3s-0.4,0.1-0.6,0.3s-0.4,0.5-0.5,0.8
			s-0.2,0.8-0.3,1.3s-0.1,1-0.1,1.6c0,0.6,0,1.1,0.1,1.6s0.2,0.9,0.3,1.2s0.3,0.6,0.5,0.8S124,212.6,124.2,212.6z"/>
	</g>
	<g class="st1">
		<path d="M158,205.9c0,0.2,0,0.4-0.1,0.6c-0.1,0.2-0.2,0.4-0.3,0.6s-0.3,0.3-0.4,0.5s-0.4,0.3-0.6,0.4c0.2,0.1,0.5,0.2,0.7,0.3
			s0.4,0.3,0.6,0.5s0.3,0.4,0.4,0.7c0.1,0.3,0.2,0.5,0.2,0.8c0,0.4-0.1,0.8-0.2,1.1c-0.1,0.3-0.3,0.6-0.5,0.8s-0.5,0.4-0.8,0.6
			s-0.7,0.3-1.1,0.4c-0.3,0.1-0.6,0.1-0.9,0.1s-0.6,0-0.8-0.1c-0.2-0.1-0.4-0.2-0.6-0.3s-0.2-0.3-0.2-0.4c0-0.1,0.1-0.3,0.2-0.4
			s0.3-0.2,0.5-0.2c0.2,0,0.5,0.1,0.6,0.2s0.3,0.2,0.5,0.3c0.1,0.1,0.3,0.2,0.4,0.2s0.2,0,0.3,0c0.2,0,0.4-0.1,0.5-0.1
			s0.3-0.2,0.5-0.4s0.3-0.3,0.4-0.5s0.1-0.5,0.2-0.7c0-0.8-0.2-1.3-0.6-1.6s-1.1-0.4-2.1-0.3v-0.6c0.3-0.1,0.6-0.2,0.9-0.3
			s0.5-0.3,0.7-0.5s0.3-0.4,0.4-0.6s0.1-0.5,0.1-0.7c0-0.4-0.1-0.7-0.3-0.9s-0.4-0.3-0.8-0.3c-0.3,0-0.7,0.1-1,0.4s-0.5,0.6-0.6,1.1
			l-0.8-0.1c0.1-0.3,0.2-0.6,0.4-0.9s0.4-0.5,0.6-0.7s0.5-0.4,0.8-0.5s0.6-0.2,1-0.2c0.3,0,0.6,0,0.8,0.1s0.5,0.2,0.7,0.4
			c0.2,0.2,0.3,0.4,0.5,0.6C158,205.4,158,205.6,158,205.9z"/>
		<path d="M160.4,205.2l2.6-1.4v7.8c0,0.2,0,0.4,0.1,0.5s0.1,0.2,0.2,0.3s0.2,0.1,0.4,0.1s0.4,0,0.6,0v0.6h-3.8v-0.6
			c0.2,0,0.4,0,0.5,0s0.3,0,0.4-0.1s0.2-0.1,0.2-0.3s0.1-0.3,0.1-0.5V206c0-0.2,0-0.3,0-0.4s0-0.2-0.1-0.2s-0.2,0-0.4,0.1
			s-0.5,0.2-0.8,0.3V205.2z"/>
	</g>
	<!-- <g id="Rectangle" class="st3">
		<rect x="55" y="17"  width="190" height="1" fill="#000"/>
	</g> -->
</g>
</svg>
