<?xml version="1.0" encoding="utf-8"?>
<!-- Generator: Adobe Illustrator 24.2.3, SVG Export Plug-In . SVG Version: 6.00 Build 0)  -->
<svg version="1.1" xmlns="http://www.w3.org/2000/svg" xmlns:xlink="http://www.w3.org/1999/xlink" x="0px" y="0px"
	 viewBox="0 0 242 254" style="enable-background:new 0 0 242 254;" xml:space="preserve">
<style type="text/css">
	.white{fill:#FFFFFF;}
</style>
<g id="cal_x5F_back">
	<path d="M0.9,17.4c0-1.6,0.1-3.1,0.4-4.6c0.3-1.5,0.7-2.8,1.4-3.9C3.3,7.8,4.1,6.8,5,6.2c1-0.7,2.1-1,3.5-1c1.4,0,2.5,0.3,3.5,1
		s1.8,1.6,2.4,2.7c0.6,1.1,1.1,2.4,1.4,3.9c0.3,1.5,0.4,3,0.4,4.6c0,1.6-0.1,3.1-0.4,4.6c-0.3,1.5-0.8,2.8-1.4,3.9s-1.4,2-2.4,2.7
		s-2.1,1-3.5,1c-1.4,0-2.5-0.3-3.5-1c-1-0.7-1.7-1.6-2.4-2.7c-0.6-1.1-1.1-2.4-1.4-3.9C1,20.6,0.9,19,0.9,17.4z M8.5,27.9
		c0.6,0,1.2-0.2,1.7-0.8s0.9-1.2,1.3-2.1c0.4-0.9,0.6-2,0.8-3.3s0.3-2.7,0.3-4.3c0-1.5-0.1-2.9-0.3-4.2c-0.2-1.3-0.5-2.4-0.8-3.4
		c-0.4-0.9-0.8-1.7-1.3-2.2C9.7,7.1,9.1,6.8,8.5,6.8S7.3,7.1,6.8,7.6C6.3,8.1,5.9,8.9,5.5,9.8s-0.6,2.1-0.8,3.3
		c-0.2,1.3-0.3,2.7-0.3,4.2c0,1.6,0.1,3,0.3,4.3C4.9,23,5.2,24.1,5.6,25c0.4,0.9,0.8,1.6,1.3,2.1C7.3,27.6,7.9,27.9,8.5,27.9z"/>
	<path d="M24.1,8.2l7-3.8v20.8c0,0.6,0.1,1,0.2,1.3c0.1,0.3,0.3,0.5,0.6,0.7c0.3,0.2,0.6,0.2,1.1,0.3s1,0.1,1.6,0.1v1.5H24.3v-1.6
		c0.5,0,1,0,1.4-0.1c0.4,0,0.8-0.1,1-0.3c0.3-0.1,0.5-0.4,0.6-0.7c0.1-0.3,0.2-0.8,0.2-1.3V10.4c0-0.5,0-0.9,0-1.2
		c0-0.3-0.1-0.4-0.3-0.4c-0.2,0-0.6,0.1-1.1,0.3C25.8,9.2,25,9.6,24.1,10V8.2z"/>
	<path d="M194.7,53.2l2.6-1.4v7.8c0,0.2,0,0.4,0.1,0.5s0.1,0.2,0.2,0.3s0.2,0.1,0.4,0.1s0.4,0,0.6,0V61h-3.8v-0.6c0.2,0,0.4,0,0.5,0
		s0.3,0,0.4-0.1s0.2-0.1,0.2-0.3s0.1-0.3,0.1-0.5V54c0-0.2,0-0.3,0-0.4s0-0.2-0.1-0.2s-0.2,0-0.4,0.1s-0.5,0.2-0.8,0.3V53.2z"/>
	<path d="M231.7,61v-0.4c0.2-0.3,0.5-0.6,0.8-0.9s0.6-0.7,0.8-1s0.5-0.7,0.8-0.9s0.4-0.5,0.6-0.7c0.1-0.2,0.3-0.4,0.4-0.6
		s0.2-0.4,0.3-0.6s0.2-0.4,0.3-0.7s0.1-0.4,0.1-0.6c0-0.2,0-0.4-0.1-0.6s-0.1-0.4-0.3-0.5s-0.3-0.3-0.5-0.4s-0.4-0.2-0.7-0.2
		c-0.2,0-0.4,0-0.6,0.1s-0.4,0.2-0.5,0.4s-0.3,0.4-0.4,0.6s-0.2,0.5-0.3,0.8l-0.8-0.2c0.1-0.3,0.2-0.7,0.3-1s0.3-0.6,0.6-0.8
		s0.5-0.4,0.8-0.6s0.7-0.2,1.1-0.2c0.4,0,0.7,0.1,1,0.2s0.6,0.3,0.8,0.5s0.4,0.5,0.5,0.8s0.2,0.6,0.2,0.9c0,0.3,0,0.5-0.1,0.8
		s-0.2,0.5-0.3,0.8s-0.2,0.5-0.4,0.7s-0.3,0.4-0.4,0.6c-0.2,0.3-0.4,0.5-0.6,0.8s-0.4,0.5-0.6,0.7s-0.4,0.5-0.6,0.7
		s-0.4,0.5-0.6,0.7h2.1c0.2,0,0.3,0,0.4,0s0.2,0,0.3-0.1s0.1-0.1,0.2-0.2s0.2-0.3,0.3-0.5h0.7l-0.7,1.7H231.7z"/>
	<path d="M8.7,91.9c0,0.2,0,0.4-0.1,0.6c-0.1,0.2-0.2,0.4-0.3,0.6s-0.3,0.3-0.4,0.5S7.6,93.9,7.4,94c0.2,0.1,0.5,0.2,0.7,0.3
		s0.4,0.3,0.6,0.5s0.3,0.4,0.4,0.7c0.1,0.3,0.2,0.5,0.2,0.8c0,0.4-0.1,0.8-0.2,1.1c-0.1,0.3-0.3,0.6-0.5,0.8s-0.5,0.4-0.8,0.6
		s-0.7,0.3-1.1,0.4c-0.3,0.1-0.6,0.1-0.9,0.1s-0.6,0-0.8-0.1c-0.2-0.1-0.4-0.2-0.6-0.3s-0.2-0.3-0.2-0.4c0-0.1,0.1-0.3,0.2-0.4
		s0.3-0.2,0.5-0.2c0.2,0,0.5,0.1,0.6,0.2s0.3,0.2,0.5,0.3c0.1,0.1,0.3,0.2,0.4,0.2s0.2,0,0.3,0c0.2,0,0.4-0.1,0.5-0.1
		s0.3-0.2,0.5-0.4s0.3-0.3,0.4-0.5s0.1-0.5,0.2-0.7c0-0.8-0.2-1.3-0.6-1.6s-1.1-0.4-2.1-0.3v-0.6c0.3-0.1,0.6-0.2,0.9-0.3
		s0.5-0.3,0.7-0.5s0.3-0.4,0.4-0.6s0.1-0.5,0.1-0.7c0-0.4-0.1-0.7-0.3-0.9s-0.4-0.3-0.8-0.3c-0.3,0-0.7,0.1-1,0.4s-0.5,0.6-0.6,1.1
		l-0.8-0.1c0.1-0.3,0.2-0.6,0.4-0.9s0.4-0.5,0.6-0.7s0.5-0.4,0.8-0.5s0.6-0.2,1-0.2c0.3,0,0.6,0,0.8,0.1s0.5,0.2,0.7,0.4
		c0.2,0.2,0.3,0.4,0.5,0.6C8.7,91.4,8.7,91.6,8.7,91.9z"/>
	<path d="M45.4,90h0.9v6h1.4v0.8h-1.4V99H45v-2.3h-3.5v-0.7L45.4,90z M45,92.3L42.7,96H45V92.3z"/>
	<path d="M81.7,99.2c-0.2,0-0.4,0-0.7-0.1S80.6,99,80.4,99s-0.4-0.2-0.5-0.3s-0.2-0.2-0.2-0.4c0-0.1,0.1-0.3,0.2-0.4
		s0.3-0.2,0.5-0.2c0.2,0,0.4,0,0.6,0.1s0.3,0.2,0.5,0.3c0.1,0.1,0.2,0.1,0.4,0.2s0.3,0.1,0.4,0.1c0.2,0,0.4-0.1,0.6-0.2
		s0.3-0.3,0.5-0.5s0.2-0.4,0.3-0.7s0.1-0.6,0.1-0.9c0-0.9-0.2-1.5-0.7-1.9s-1.2-0.6-2.3-0.6c-0.2,0-0.3,0-0.4-0.1s-0.1-0.2-0.1-0.3
		l1.2-3H85l-0.2,0.9h-2.7l-0.6,1.6c0.5,0,1,0,1.4,0.2s0.8,0.3,1.1,0.6s0.5,0.6,0.7,1s0.3,0.8,0.3,1.3c0,0.4-0.1,0.9-0.2,1.3
		s-0.4,0.8-0.7,1.1s-0.6,0.6-1,0.7S82.2,99.2,81.7,99.2z"/>
	<path d="M119.3,93.8c0.1-0.1,0.3-0.2,0.5-0.3s0.4-0.2,0.6-0.2c0.4,0,0.8,0,1.1,0.1s0.7,0.3,0.9,0.6s0.5,0.6,0.6,1s0.2,0.8,0.2,1.2
		c0,0.4-0.1,0.8-0.2,1.2s-0.3,0.7-0.5,0.9s-0.5,0.5-0.8,0.6s-0.7,0.2-1.1,0.2c-0.4,0-0.8-0.1-1.2-0.3s-0.7-0.5-0.9-0.8
		s-0.4-0.7-0.6-1.2s-0.2-1-0.2-1.5c0-0.7,0.1-1.4,0.4-2.1s0.6-1.2,1.1-1.7s1-0.9,1.7-1.2s1.4-0.4,2.3-0.4l0,0.5
		c-0.5,0-0.9,0.1-1.4,0.3s-0.8,0.4-1.1,0.7s-0.6,0.6-0.8,0.9S119.4,93.3,119.3,93.8z M119.1,95.7c0,0.4,0,0.7,0.1,1.1
		s0.2,0.6,0.3,0.9s0.3,0.5,0.5,0.6s0.4,0.2,0.7,0.2c0.2,0,0.4-0.1,0.6-0.2s0.3-0.3,0.4-0.5s0.2-0.5,0.2-0.7s0.1-0.6,0-0.8
		c0-0.3-0.1-0.6-0.2-0.9s-0.2-0.5-0.3-0.7s-0.3-0.4-0.5-0.5s-0.4-0.2-0.6-0.1c-0.3,0-0.6,0.2-0.8,0.5S119.1,95.2,119.1,95.7z"/>
	<path d="M161.7,90.2l0.2,0.2l-2.7,8.6H158l2.4-7.9h-2.3c-0.2,0-0.3,0-0.4,0.1s-0.2,0.1-0.3,0.2s-0.2,0.2-0.3,0.3s-0.2,0.3-0.3,0.5
		l-0.7-0.2l0.8-1.9H161.7z"/>
	<path d="M199.5,92.2c0,0.3,0,0.5-0.1,0.8s-0.2,0.4-0.3,0.6s-0.3,0.3-0.4,0.5s-0.3,0.2-0.5,0.3c0.5,0.2,0.9,0.5,1.2,0.8
		s0.4,0.8,0.4,1.4c0,0.4-0.1,0.7-0.2,1.1s-0.3,0.6-0.6,0.8s-0.6,0.4-0.9,0.5s-0.7,0.2-1.1,0.2c-0.4,0-0.7-0.1-1-0.2
		s-0.6-0.3-0.9-0.5s-0.4-0.5-0.6-0.7s-0.2-0.6-0.2-0.9c0-0.3,0-0.6,0.1-0.8s0.2-0.5,0.4-0.7s0.3-0.4,0.5-0.5s0.4-0.3,0.6-0.3
		c-0.2-0.1-0.4-0.2-0.5-0.3s-0.3-0.3-0.5-0.5s-0.2-0.4-0.3-0.6s-0.1-0.5-0.1-0.8c0-0.3,0.1-0.6,0.2-0.9s0.3-0.5,0.5-0.7
		s0.5-0.4,0.8-0.5s0.7-0.2,1.1-0.2c0.3,0,0.6,0,0.9,0.1s0.6,0.2,0.8,0.4s0.4,0.4,0.6,0.7S199.5,91.8,199.5,92.2z M195.4,96.9
		c0,0.3,0,0.5,0.1,0.7s0.2,0.4,0.4,0.5s0.3,0.2,0.5,0.3s0.4,0.1,0.6,0.1c0.2,0,0.4,0,0.6-0.1s0.4-0.2,0.5-0.3s0.3-0.3,0.4-0.5
		s0.1-0.4,0.1-0.7c0-0.3,0-0.6-0.1-0.8s-0.2-0.4-0.4-0.5s-0.4-0.3-0.6-0.4s-0.5-0.2-0.8-0.4c-0.4,0.2-0.8,0.5-1,0.8
		S195.4,96.4,195.4,96.9z M195.7,92.2c0,0.2,0,0.4,0.1,0.6s0.2,0.4,0.4,0.5s0.3,0.3,0.5,0.4s0.4,0.2,0.7,0.3
		c0.3-0.2,0.5-0.4,0.7-0.7s0.3-0.6,0.3-1c0-0.3,0-0.5-0.1-0.8s-0.2-0.4-0.3-0.5s-0.3-0.3-0.4-0.3s-0.3-0.1-0.5-0.1
		c-0.2,0-0.3,0-0.5,0.1s-0.3,0.2-0.4,0.3s-0.2,0.3-0.3,0.5S195.7,91.9,195.7,92.2z"/>
	<path d="M1.9,129.2l2.6-1.4v7.8c0,0.2,0,0.4,0.1,0.5s0.1,0.2,0.2,0.3s0.2,0.1,0.4,0.1s0.4,0,0.6,0v0.6H2v-0.6c0.2,0,0.4,0,0.5,0
		s0.3,0,0.4-0.1s0.2-0.1,0.2-0.3s0.1-0.3,0.1-0.5V130c0-0.2,0-0.3,0-0.4s0-0.2-0.1-0.2s-0.2,0-0.4,0.1s-0.5,0.2-0.8,0.3V129.2z"/>
	<path d="M7.3,132.7c0-0.6,0.1-1.2,0.2-1.7s0.3-1,0.5-1.5s0.5-0.8,0.9-1s0.8-0.4,1.3-0.4s0.9,0.1,1.3,0.4s0.7,0.6,0.9,1
		s0.4,0.9,0.5,1.5s0.2,1.1,0.2,1.7c0,0.6-0.1,1.2-0.2,1.7s-0.3,1-0.5,1.5s-0.5,0.8-0.9,1s-0.8,0.4-1.3,0.4c-0.5,0-0.9-0.1-1.3-0.4
		s-0.7-0.6-0.9-1s-0.4-0.9-0.5-1.5S7.3,133.3,7.3,132.7z M10.2,136.6c0.2,0,0.5-0.1,0.6-0.3s0.3-0.5,0.5-0.8s0.2-0.8,0.3-1.2
		s0.1-1,0.1-1.6c0-0.6,0-1.1-0.1-1.6s-0.2-0.9-0.3-1.3s-0.3-0.6-0.5-0.8s-0.4-0.3-0.6-0.3s-0.4,0.1-0.6,0.3s-0.4,0.5-0.5,0.8
		s-0.2,0.8-0.3,1.3s-0.1,1-0.1,1.6c0,0.6,0,1.1,0.1,1.6s0.2,0.9,0.3,1.2s0.3,0.6,0.5,0.8S10,136.6,10.2,136.6z"/>
	<path d="M39.9,129.2l2.6-1.4v7.8c0,0.2,0,0.4,0.1,0.5s0.1,0.2,0.2,0.3s0.2,0.1,0.4,0.1s0.4,0,0.6,0v0.6H40v-0.6c0.2,0,0.4,0,0.5,0
		s0.3,0,0.4-0.1s0.2-0.1,0.2-0.3s0.1-0.3,0.1-0.5V130c0-0.2,0-0.3,0-0.4s0-0.2-0.1-0.2s-0.2,0-0.4,0.1s-0.5,0.2-0.8,0.3V129.2z"/>
	<path d="M46.4,129.2l2.6-1.4v7.8c0,0.2,0,0.4,0.1,0.5s0.1,0.2,0.2,0.3s0.2,0.1,0.4,0.1s0.4,0,0.6,0v0.6h-3.8v-0.6
		c0.2,0,0.4,0,0.5,0s0.3,0,0.4-0.1s0.2-0.1,0.2-0.3s0.1-0.3,0.1-0.5V130c0-0.2,0-0.3,0-0.4s0-0.2-0.1-0.2s-0.2,0-0.4,0.1
		s-0.5,0.2-0.8,0.3V129.2z"/>
	<path d="M77.9,129.2l2.6-1.4v7.8c0,0.2,0,0.4,0.1,0.5s0.1,0.2,0.2,0.3s0.2,0.1,0.4,0.1s0.4,0,0.6,0v0.6H78v-0.6c0.2,0,0.4,0,0.5,0
		s0.3,0,0.4-0.1s0.2-0.1,0.2-0.3s0.1-0.3,0.1-0.5V130c0-0.2,0-0.3,0-0.4s0-0.2-0.1-0.2s-0.2,0-0.4,0.1s-0.5,0.2-0.8,0.3V129.2z"/>
	<path d="M83.5,137v-0.4c0.2-0.3,0.5-0.6,0.8-0.9s0.6-0.7,0.8-1s0.5-0.7,0.8-0.9s0.4-0.5,0.6-0.7c0.1-0.2,0.3-0.4,0.4-0.6
		s0.2-0.4,0.3-0.6s0.2-0.4,0.3-0.7s0.1-0.4,0.1-0.6c0-0.2,0-0.4-0.1-0.6s-0.1-0.4-0.3-0.5s-0.3-0.3-0.5-0.4s-0.4-0.2-0.7-0.2
		c-0.2,0-0.4,0-0.6,0.1s-0.4,0.2-0.5,0.4s-0.3,0.4-0.4,0.6s-0.2,0.5-0.3,0.8l-0.8-0.2c0.1-0.3,0.2-0.7,0.3-1s0.3-0.6,0.6-0.8
		s0.5-0.4,0.8-0.6s0.7-0.2,1.1-0.2c0.4,0,0.7,0.1,1,0.2s0.6,0.3,0.8,0.5s0.4,0.5,0.5,0.8s0.2,0.6,0.2,0.9c0,0.3,0,0.5-0.1,0.8
		s-0.2,0.5-0.3,0.8s-0.2,0.5-0.4,0.7s-0.3,0.4-0.4,0.6c-0.2,0.3-0.4,0.5-0.6,0.8s-0.4,0.5-0.6,0.7s-0.4,0.5-0.6,0.7
		s-0.4,0.5-0.6,0.7h2.1c0.2,0,0.3,0,0.4,0s0.2,0,0.3-0.1s0.1-0.1,0.2-0.2s0.2-0.3,0.3-0.5h0.7l-0.7,1.7H83.5z"/>
	<path d="M115.9,129.2l2.6-1.4v7.8c0,0.2,0,0.4,0.1,0.5s0.1,0.2,0.2,0.3s0.2,0.1,0.4,0.1s0.4,0,0.6,0v0.6H116v-0.6
		c0.2,0,0.4,0,0.5,0s0.3,0,0.4-0.1s0.2-0.1,0.2-0.3s0.1-0.3,0.1-0.5V130c0-0.2,0-0.3,0-0.4s0-0.2-0.1-0.2s-0.2,0-0.4,0.1
		s-0.5,0.2-0.8,0.3V129.2z"/>
	<path d="M126.5,129.9c0,0.2,0,0.4-0.1,0.6c-0.1,0.2-0.2,0.4-0.3,0.6s-0.3,0.3-0.4,0.5s-0.4,0.3-0.6,0.4c0.2,0.1,0.5,0.2,0.7,0.3
		s0.4,0.3,0.6,0.5s0.3,0.4,0.4,0.7c0.1,0.3,0.2,0.5,0.2,0.8c0,0.4-0.1,0.8-0.2,1.1c-0.1,0.3-0.3,0.6-0.5,0.8s-0.5,0.4-0.8,0.6
		s-0.7,0.3-1.1,0.4c-0.3,0.1-0.6,0.1-0.9,0.1s-0.6,0-0.8-0.1c-0.2-0.1-0.4-0.2-0.6-0.3s-0.2-0.3-0.2-0.4c0-0.1,0.1-0.3,0.2-0.4
		s0.3-0.2,0.5-0.2c0.2,0,0.5,0.1,0.6,0.2s0.3,0.2,0.5,0.3c0.1,0.1,0.3,0.2,0.4,0.2s0.2,0,0.3,0c0.2,0,0.4-0.1,0.5-0.1
		s0.3-0.2,0.5-0.4s0.3-0.3,0.4-0.5s0.1-0.5,0.2-0.7c0-0.8-0.2-1.3-0.6-1.6s-1.1-0.4-2.1-0.3v-0.6c0.3-0.1,0.6-0.2,0.9-0.3
		s0.5-0.3,0.7-0.5s0.3-0.4,0.4-0.6s0.1-0.5,0.1-0.7c0-0.4-0.1-0.7-0.3-0.9s-0.4-0.3-0.8-0.3c-0.3,0-0.7,0.1-1,0.4s-0.5,0.6-0.6,1.1
		l-0.8-0.1c0.1-0.3,0.2-0.6,0.4-0.9s0.4-0.5,0.6-0.7s0.5-0.4,0.8-0.5s0.6-0.2,1-0.2c0.3,0,0.6,0,0.8,0.1s0.5,0.2,0.7,0.4
		c0.2,0.2,0.3,0.4,0.5,0.6C126.4,129.4,126.5,129.6,126.5,129.9z"/>
	<path d="M153.9,129.2l2.6-1.4v7.8c0,0.2,0,0.4,0.1,0.5s0.1,0.2,0.2,0.3s0.2,0.1,0.4,0.1s0.4,0,0.6,0v0.6H154v-0.6
		c0.2,0,0.4,0,0.5,0s0.3,0,0.4-0.1s0.2-0.1,0.2-0.3s0.1-0.3,0.1-0.5V130c0-0.2,0-0.3,0-0.4s0-0.2-0.1-0.2s-0.2,0-0.4,0.1
		s-0.5,0.2-0.8,0.3V129.2z"/>
	<path d="M163.1,128h0.9v6h1.4v0.8H164v2.3h-1.3v-2.3h-3.5v-0.7L163.1,128z M162.7,130.3l-2.3,3.6h2.3V130.3z"/>
	<path d="M191.9,129.2l2.6-1.4v7.8c0,0.2,0,0.4,0.1,0.5s0.1,0.2,0.2,0.3s0.2,0.1,0.4,0.1s0.4,0,0.6,0v0.6H192v-0.6
		c0.2,0,0.4,0,0.5,0s0.3,0,0.4-0.1s0.2-0.1,0.2-0.3s0.1-0.3,0.1-0.5V130c0-0.2,0-0.3,0-0.4s0-0.2-0.1-0.2s-0.2,0-0.4,0.1
		s-0.5,0.2-0.8,0.3V129.2z"/>
	<path d="M199.5,137.2c-0.2,0-0.4,0-0.7-0.1s-0.5-0.1-0.7-0.2s-0.4-0.2-0.5-0.3s-0.2-0.2-0.2-0.4c0-0.1,0.1-0.3,0.2-0.4
		s0.3-0.2,0.5-0.2c0.2,0,0.4,0,0.6,0.1s0.3,0.2,0.5,0.3c0.1,0.1,0.2,0.1,0.4,0.2s0.3,0.1,0.4,0.1c0.2,0,0.4-0.1,0.6-0.2
		s0.3-0.3,0.5-0.5s0.2-0.4,0.3-0.7s0.1-0.6,0.1-0.9c0-0.9-0.2-1.5-0.7-1.9s-1.2-0.6-2.3-0.6c-0.2,0-0.3,0-0.4-0.1s-0.1-0.2-0.1-0.3
		l1.2-3h3.6l-0.2,0.9h-2.7l-0.6,1.6c0.5,0,1,0,1.4,0.2s0.8,0.3,1.1,0.6s0.5,0.6,0.7,1s0.3,0.8,0.3,1.3c0,0.4-0.1,0.9-0.2,1.3
		s-0.4,0.8-0.7,1.1s-0.6,0.6-1,0.7S199.9,137.2,199.5,137.2z"/>
	<path d="M229.9,129.2l2.6-1.4v7.8c0,0.2,0,0.4,0.1,0.5s0.1,0.2,0.2,0.3s0.2,0.1,0.4,0.1s0.4,0,0.6,0v0.6H230v-0.6
		c0.2,0,0.4,0,0.5,0s0.3,0,0.4-0.1s0.2-0.1,0.2-0.3s0.1-0.3,0.1-0.5V130c0-0.2,0-0.3,0-0.4s0-0.2-0.1-0.2s-0.2,0-0.4,0.1
		s-0.5,0.2-0.8,0.3V129.2z"/>
	<path d="M237,131.8c0.1-0.1,0.3-0.2,0.5-0.3s0.4-0.2,0.6-0.2c0.4,0,0.8,0,1.1,0.1s0.7,0.3,0.9,0.6s0.5,0.6,0.6,1s0.2,0.8,0.2,1.2
		c0,0.4-0.1,0.8-0.2,1.2s-0.3,0.7-0.5,0.9s-0.5,0.5-0.8,0.6s-0.7,0.2-1.1,0.2c-0.4,0-0.8-0.1-1.2-0.3s-0.7-0.5-0.9-0.8
		s-0.4-0.7-0.6-1.2s-0.2-1-0.2-1.5c0-0.7,0.1-1.4,0.4-2.1s0.6-1.2,1.1-1.7s1-0.9,1.7-1.2s1.4-0.4,2.3-0.4l0,0.5
		c-0.5,0-0.9,0.1-1.4,0.3s-0.8,0.4-1.1,0.7s-0.6,0.6-0.8,0.9S237.2,131.3,237,131.8z M236.9,133.7c0,0.4,0,0.7,0.1,1.1
		s0.2,0.6,0.3,0.9s0.3,0.5,0.5,0.6s0.4,0.2,0.7,0.2c0.2,0,0.4-0.1,0.6-0.2s0.3-0.3,0.4-0.5s0.2-0.5,0.2-0.7s0.1-0.6,0-0.8
		c0-0.3-0.1-0.6-0.2-0.9s-0.2-0.5-0.3-0.7s-0.3-0.4-0.5-0.5s-0.4-0.2-0.6-0.1c-0.3,0-0.6,0.2-0.8,0.5S236.9,133.2,236.9,133.7z"/>
	<path d="M1.9,167.2l2.6-1.4v7.8c0,0.2,0,0.4,0.1,0.5s0.1,0.2,0.2,0.3s0.2,0.1,0.4,0.1s0.4,0,0.6,0v0.6H2v-0.6c0.2,0,0.4,0,0.5,0
		s0.3,0,0.4-0.1s0.2-0.1,0.2-0.3s0.1-0.3,0.1-0.5V168c0-0.2,0-0.3,0-0.4s0-0.2-0.1-0.2s-0.2,0-0.4,0.1s-0.5,0.2-0.8,0.3V167.2z"/>
	<path d="M12.9,166.2l0.2,0.2l-2.7,8.6H9.2l2.4-7.9H9.4c-0.2,0-0.3,0-0.4,0.1s-0.2,0.1-0.3,0.2s-0.2,0.2-0.3,0.3S8.1,168,8,168.2
		L7.4,168l0.8-1.9H12.9z"/>
	<path d="M39.9,167.2l2.6-1.4v7.8c0,0.2,0,0.4,0.1,0.5s0.1,0.2,0.2,0.3s0.2,0.1,0.4,0.1s0.4,0,0.6,0v0.6H40v-0.6c0.2,0,0.4,0,0.5,0
		s0.3,0,0.4-0.1s0.2-0.1,0.2-0.3s0.1-0.3,0.1-0.5V168c0-0.2,0-0.3,0-0.4s0-0.2-0.1-0.2s-0.2,0-0.4,0.1s-0.5,0.2-0.8,0.3V167.2z"/>
	<path d="M50.7,168.2c0,0.3,0,0.5-0.1,0.8s-0.2,0.4-0.3,0.6s-0.3,0.3-0.4,0.5s-0.3,0.2-0.5,0.3c0.5,0.2,0.9,0.5,1.2,0.8
		s0.4,0.8,0.4,1.4c0,0.4-0.1,0.7-0.2,1.1s-0.3,0.6-0.6,0.8s-0.6,0.4-0.9,0.5s-0.7,0.2-1.1,0.2c-0.4,0-0.7-0.1-1-0.2
		s-0.6-0.3-0.9-0.5s-0.4-0.5-0.6-0.7s-0.2-0.6-0.2-0.9c0-0.3,0-0.6,0.1-0.8s0.2-0.5,0.4-0.7s0.3-0.4,0.5-0.5s0.4-0.3,0.6-0.3
		c-0.2-0.1-0.4-0.2-0.5-0.3s-0.3-0.3-0.5-0.5s-0.2-0.4-0.3-0.6s-0.1-0.5-0.1-0.8c0-0.3,0.1-0.6,0.2-0.9s0.3-0.5,0.5-0.7
		s0.5-0.4,0.8-0.5s0.7-0.2,1.1-0.2c0.3,0,0.6,0,0.9,0.1s0.6,0.2,0.8,0.4s0.4,0.4,0.6,0.7S50.7,167.8,50.7,168.2z M46.6,172.9
		c0,0.3,0,0.5,0.1,0.7s0.2,0.4,0.4,0.5s0.3,0.2,0.5,0.3s0.4,0.1,0.6,0.1c0.2,0,0.4,0,0.6-0.1s0.4-0.2,0.5-0.3s0.3-0.3,0.4-0.5
		s0.1-0.4,0.1-0.7c0-0.3,0-0.6-0.1-0.8s-0.2-0.4-0.4-0.5s-0.4-0.3-0.6-0.4s-0.5-0.2-0.8-0.4c-0.4,0.2-0.8,0.5-1,0.8
		S46.6,172.4,46.6,172.9z M46.9,168.2c0,0.2,0,0.4,0.1,0.6s0.2,0.4,0.4,0.5s0.3,0.3,0.5,0.4s0.4,0.2,0.7,0.3
		c0.3-0.2,0.5-0.4,0.7-0.7s0.3-0.6,0.3-1c0-0.3,0-0.5-0.1-0.8s-0.2-0.4-0.3-0.5s-0.3-0.3-0.4-0.3s-0.3-0.1-0.5-0.1
		c-0.2,0-0.3,0-0.5,0.1s-0.3,0.2-0.4,0.3s-0.2,0.3-0.3,0.5S46.9,167.9,46.9,168.2z"/>
	<path d="M77.9,167.2l2.6-1.4v7.8c0,0.2,0,0.4,0.1,0.5s0.1,0.2,0.2,0.3s0.2,0.1,0.4,0.1s0.4,0,0.6,0v0.6H78v-0.6c0.2,0,0.4,0,0.5,0
		s0.3,0,0.4-0.1s0.2-0.1,0.2-0.3s0.1-0.3,0.1-0.5V168c0-0.2,0-0.3,0-0.4s0-0.2-0.1-0.2s-0.2,0-0.4,0.1s-0.5,0.2-0.8,0.3V167.2z"/>
	<path d="M87.5,171.4c-0.2,0.2-0.3,0.3-0.5,0.4s-0.4,0.2-0.7,0.2c-0.4,0-0.8,0-1.1-0.2s-0.7-0.3-0.9-0.6s-0.5-0.6-0.6-1
		s-0.2-0.8-0.2-1.2c0-0.4,0.1-0.8,0.2-1.2s0.3-0.7,0.5-0.9s0.5-0.5,0.8-0.6s0.7-0.2,1.1-0.2c0.4,0,0.8,0.1,1.2,0.3s0.7,0.5,0.9,0.8
		s0.4,0.7,0.6,1.2s0.2,1,0.2,1.5c0,0.7-0.1,1.4-0.4,2.1s-0.6,1.2-1.1,1.7s-1,0.9-1.7,1.2s-1.4,0.4-2.3,0.4l0-0.6
		c0.5,0,1-0.2,1.4-0.3s0.8-0.4,1.1-0.6s0.6-0.6,0.9-0.9S87.4,172,87.5,171.4z M87.6,169.6c0-0.4,0-0.7-0.1-1.1s-0.2-0.7-0.3-0.9
		s-0.3-0.5-0.5-0.7s-0.4-0.2-0.7-0.2c-0.2,0-0.4,0.1-0.6,0.2s-0.3,0.3-0.4,0.5s-0.2,0.5-0.2,0.8s-0.1,0.6,0,0.9
		c0,0.3,0.1,0.6,0.2,0.9s0.2,0.5,0.3,0.7s0.3,0.4,0.5,0.5s0.4,0.2,0.6,0.1c0.3-0.1,0.6-0.2,0.9-0.5S87.6,170.1,87.6,169.6z"/>
	<path d="M115,175v-0.4c0.2-0.3,0.5-0.6,0.8-0.9s0.6-0.7,0.8-1s0.5-0.7,0.8-0.9s0.4-0.5,0.6-0.7c0.1-0.2,0.3-0.4,0.4-0.6
		s0.2-0.4,0.3-0.6s0.2-0.4,0.3-0.7s0.1-0.4,0.1-0.6c0-0.2,0-0.4-0.1-0.6s-0.1-0.4-0.3-0.5s-0.3-0.3-0.5-0.4s-0.4-0.2-0.7-0.2
		c-0.2,0-0.4,0-0.6,0.1s-0.4,0.2-0.5,0.4s-0.3,0.4-0.4,0.6s-0.2,0.5-0.3,0.8l-0.8-0.2c0.1-0.3,0.2-0.7,0.3-1s0.3-0.6,0.6-0.8
		s0.5-0.4,0.8-0.6s0.7-0.2,1.1-0.2c0.4,0,0.7,0.1,1,0.2s0.6,0.3,0.8,0.5s0.4,0.5,0.5,0.8s0.2,0.6,0.2,0.9c0,0.3,0,0.5-0.1,0.8
		s-0.2,0.5-0.3,0.8s-0.2,0.5-0.4,0.7s-0.3,0.4-0.4,0.6c-0.2,0.3-0.4,0.5-0.6,0.8s-0.4,0.5-0.6,0.7s-0.4,0.5-0.6,0.7
		s-0.4,0.5-0.6,0.7h2.1c0.2,0,0.3,0,0.4,0s0.2,0,0.3-0.1s0.1-0.1,0.2-0.2s0.2-0.3,0.3-0.5h0.7l-0.7,1.7H115z"/>
	<path d="M121.3,170.7c0-0.6,0.1-1.2,0.2-1.7s0.3-1,0.5-1.5s0.5-0.8,0.9-1s0.8-0.4,1.3-0.4s0.9,0.1,1.3,0.4s0.7,0.6,0.9,1
		s0.4,0.9,0.5,1.5s0.2,1.1,0.2,1.7c0,0.6-0.1,1.2-0.2,1.7s-0.3,1-0.5,1.5s-0.5,0.8-0.9,1s-0.8,0.4-1.3,0.4c-0.5,0-0.9-0.1-1.3-0.4
		s-0.7-0.6-0.9-1s-0.4-0.9-0.5-1.5S121.3,171.3,121.3,170.7z M124.2,174.6c0.2,0,0.5-0.1,0.6-0.3s0.3-0.5,0.5-0.8s0.2-0.8,0.3-1.2
		s0.1-1,0.1-1.6c0-0.6,0-1.1-0.1-1.6s-0.2-0.9-0.3-1.3s-0.3-0.6-0.5-0.8s-0.4-0.3-0.6-0.3s-0.4,0.1-0.6,0.3s-0.4,0.5-0.5,0.8
		s-0.2,0.8-0.3,1.3s-0.1,1-0.1,1.6c0,0.6,0,1.1,0.1,1.6s0.2,0.9,0.3,1.2s0.3,0.6,0.5,0.8S124,174.6,124.2,174.6z"/>
	<path d="M153,175v-0.4c0.2-0.3,0.5-0.6,0.8-0.9s0.6-0.7,0.8-1s0.5-0.7,0.8-0.9s0.4-0.5,0.6-0.7c0.1-0.2,0.3-0.4,0.4-0.6
		s0.2-0.4,0.3-0.6s0.2-0.4,0.3-0.7s0.1-0.4,0.1-0.6c0-0.2,0-0.4-0.1-0.6s-0.1-0.4-0.3-0.5s-0.3-0.3-0.5-0.4s-0.4-0.2-0.7-0.2
		c-0.2,0-0.4,0-0.6,0.1s-0.4,0.2-0.5,0.4s-0.3,0.4-0.4,0.6s-0.2,0.5-0.3,0.8l-0.8-0.2c0.1-0.3,0.2-0.7,0.3-1s0.3-0.6,0.6-0.8
		s0.5-0.4,0.8-0.6s0.7-0.2,1.1-0.2c0.4,0,0.7,0.1,1,0.2s0.6,0.3,0.8,0.5s0.4,0.5,0.5,0.8s0.2,0.6,0.2,0.9c0,0.3,0,0.5-0.1,0.8
		s-0.2,0.5-0.3,0.8s-0.2,0.5-0.4,0.7s-0.3,0.4-0.4,0.6c-0.2,0.3-0.4,0.5-0.6,0.8s-0.4,0.5-0.6,0.7s-0.4,0.5-0.6,0.7
		s-0.4,0.5-0.6,0.7h2.1c0.2,0,0.3,0,0.4,0s0.2,0,0.3-0.1s0.1-0.1,0.2-0.2s0.2-0.3,0.3-0.5h0.7l-0.7,1.7H153z"/>
	<path d="M160.4,167.2l2.6-1.4v7.8c0,0.2,0,0.4,0.1,0.5s0.1,0.2,0.2,0.3s0.2,0.1,0.4,0.1s0.4,0,0.6,0v0.6h-3.8v-0.6
		c0.2,0,0.4,0,0.5,0s0.3,0,0.4-0.1s0.2-0.1,0.2-0.3s0.1-0.3,0.1-0.5V168c0-0.2,0-0.3,0-0.4s0-0.2-0.1-0.2s-0.2,0-0.4,0.1
		s-0.5,0.2-0.8,0.3V167.2z"/>
	<path d="M191,175v-0.4c0.2-0.3,0.5-0.6,0.8-0.9s0.6-0.7,0.8-1s0.5-0.7,0.8-0.9s0.4-0.5,0.6-0.7c0.1-0.2,0.3-0.4,0.4-0.6
		s0.2-0.4,0.3-0.6s0.2-0.4,0.3-0.7s0.1-0.4,0.1-0.6c0-0.2,0-0.4-0.1-0.6s-0.1-0.4-0.3-0.5s-0.3-0.3-0.5-0.4s-0.4-0.2-0.7-0.2
		c-0.2,0-0.4,0-0.6,0.1s-0.4,0.2-0.5,0.4s-0.3,0.4-0.4,0.6s-0.2,0.5-0.3,0.8l-0.8-0.2c0.1-0.3,0.2-0.7,0.3-1s0.3-0.6,0.6-0.8
		s0.5-0.4,0.8-0.6s0.7-0.2,1.1-0.2c0.4,0,0.7,0.1,1,0.2s0.6,0.3,0.8,0.5s0.4,0.5,0.5,0.8s0.2,0.6,0.2,0.9c0,0.3,0,0.5-0.1,0.8
		s-0.2,0.5-0.3,0.8s-0.2,0.5-0.4,0.7s-0.3,0.4-0.4,0.6c-0.2,0.3-0.4,0.5-0.6,0.8s-0.4,0.5-0.6,0.7s-0.4,0.5-0.6,0.7
		s-0.4,0.5-0.6,0.7h2.1c0.2,0,0.3,0,0.4,0s0.2,0,0.3-0.1s0.1-0.1,0.2-0.2s0.2-0.3,0.3-0.5h0.7l-0.7,1.7H191z"/>
	<path d="M197.5,175v-0.4c0.2-0.3,0.5-0.6,0.8-0.9s0.6-0.7,0.8-1s0.5-0.7,0.8-0.9s0.4-0.5,0.6-0.7c0.1-0.2,0.3-0.4,0.4-0.6
		s0.2-0.4,0.3-0.6s0.2-0.4,0.3-0.7s0.1-0.4,0.1-0.6c0-0.2,0-0.4-0.1-0.6s-0.1-0.4-0.3-0.5s-0.3-0.3-0.5-0.4s-0.4-0.2-0.7-0.2
		c-0.2,0-0.4,0-0.6,0.1s-0.4,0.2-0.5,0.4s-0.3,0.4-0.4,0.6s-0.2,0.5-0.3,0.8l-0.8-0.2c0.1-0.3,0.2-0.7,0.3-1s0.3-0.6,0.6-0.8
		s0.5-0.4,0.8-0.6s0.7-0.2,1.1-0.2c0.4,0,0.7,0.1,1,0.2s0.6,0.3,0.8,0.5s0.4,0.5,0.5,0.8s0.2,0.6,0.2,0.9c0,0.3,0,0.5-0.1,0.8
		s-0.2,0.5-0.3,0.8s-0.2,0.5-0.4,0.7s-0.3,0.4-0.4,0.6c-0.2,0.3-0.4,0.5-0.6,0.8s-0.4,0.5-0.6,0.7s-0.4,0.5-0.6,0.7
		s-0.4,0.5-0.6,0.7h2.1c0.2,0,0.3,0,0.4,0s0.2,0,0.3-0.1s0.1-0.1,0.2-0.2s0.2-0.3,0.3-0.5h0.7l-0.7,1.7H197.5z"/>
	<path d="M229,175v-0.4c0.2-0.3,0.5-0.6,0.8-0.9s0.6-0.7,0.8-1s0.5-0.7,0.8-0.9s0.4-0.5,0.6-0.7c0.1-0.2,0.3-0.4,0.4-0.6
		s0.2-0.4,0.3-0.6s0.2-0.4,0.3-0.7s0.1-0.4,0.1-0.6c0-0.2,0-0.4-0.1-0.6s-0.1-0.4-0.3-0.5s-0.3-0.3-0.5-0.4s-0.4-0.2-0.7-0.2
		c-0.2,0-0.4,0-0.6,0.1s-0.4,0.2-0.5,0.4s-0.3,0.4-0.4,0.6s-0.2,0.5-0.3,0.8l-0.8-0.2c0.1-0.3,0.2-0.7,0.3-1s0.3-0.6,0.6-0.8
		s0.5-0.4,0.8-0.6s0.7-0.2,1.1-0.2c0.4,0,0.7,0.1,1,0.2s0.6,0.3,0.8,0.5s0.4,0.5,0.5,0.8s0.2,0.6,0.2,0.9c0,0.3,0,0.5-0.1,0.8
		s-0.2,0.5-0.3,0.8s-0.2,0.5-0.4,0.7s-0.3,0.4-0.4,0.6c-0.2,0.3-0.4,0.5-0.6,0.8s-0.4,0.5-0.6,0.7s-0.4,0.5-0.6,0.7
		s-0.4,0.5-0.6,0.7h2.1c0.2,0,0.3,0,0.4,0s0.2,0,0.3-0.1s0.1-0.1,0.2-0.2s0.2-0.3,0.3-0.5h0.7l-0.7,1.7H229z"/>
	<path d="M240.5,167.9c0,0.2,0,0.4-0.1,0.6c-0.1,0.2-0.2,0.4-0.3,0.6s-0.3,0.3-0.4,0.5s-0.4,0.3-0.6,0.4c0.2,0.1,0.5,0.2,0.7,0.3
		s0.4,0.3,0.6,0.5s0.3,0.4,0.4,0.7c0.1,0.3,0.2,0.5,0.2,0.8c0,0.4-0.1,0.8-0.2,1.1c-0.1,0.3-0.3,0.6-0.5,0.8s-0.5,0.4-0.8,0.6
		s-0.7,0.3-1.1,0.4c-0.3,0.1-0.6,0.1-0.9,0.1s-0.6,0-0.8-0.1c-0.2-0.1-0.4-0.2-0.6-0.3s-0.2-0.3-0.2-0.4c0-0.1,0.1-0.3,0.2-0.4
		s0.3-0.2,0.5-0.2c0.2,0,0.5,0.1,0.6,0.2s0.3,0.2,0.5,0.3c0.1,0.1,0.3,0.2,0.4,0.2s0.2,0,0.3,0c0.2,0,0.4-0.1,0.5-0.1
		s0.3-0.2,0.5-0.4s0.3-0.3,0.4-0.5s0.1-0.5,0.2-0.7c0-0.8-0.2-1.3-0.6-1.6s-1.1-0.4-2.1-0.3v-0.6c0.3-0.1,0.6-0.2,0.9-0.3
		s0.5-0.3,0.7-0.5s0.3-0.4,0.4-0.6s0.1-0.5,0.1-0.7c0-0.4-0.1-0.7-0.3-0.9s-0.4-0.3-0.8-0.3c-0.3,0-0.7,0.1-1,0.4s-0.5,0.6-0.6,1.1
		l-0.8-0.1c0.1-0.3,0.2-0.6,0.4-0.9s0.4-0.5,0.6-0.7s0.5-0.4,0.8-0.5s0.6-0.2,1-0.2c0.3,0,0.6,0,0.8,0.1s0.5,0.2,0.7,0.4
		c0.2,0.2,0.3,0.4,0.5,0.6C240.4,167.4,240.5,167.6,240.5,167.9z"/>
	<path d="M1,213v-0.4c0.2-0.3,0.5-0.6,0.8-0.9s0.6-0.7,0.8-1s0.5-0.7,0.8-0.9s0.4-0.5,0.6-0.7c0.1-0.2,0.3-0.4,0.4-0.6
		s0.2-0.4,0.3-0.6s0.2-0.4,0.3-0.7s0.1-0.4,0.1-0.6c0-0.2,0-0.4-0.1-0.6s-0.1-0.4-0.3-0.5s-0.3-0.3-0.5-0.4s-0.4-0.2-0.7-0.2
		c-0.2,0-0.4,0-0.6,0.1s-0.4,0.2-0.5,0.4s-0.3,0.4-0.4,0.6s-0.2,0.5-0.3,0.8L1,206.7c0.1-0.3,0.2-0.7,0.3-1s0.3-0.6,0.6-0.8
		s0.5-0.4,0.8-0.6s0.7-0.2,1.1-0.2c0.4,0,0.7,0.1,1,0.2s0.6,0.3,0.8,0.5s0.4,0.5,0.5,0.8s0.2,0.6,0.2,0.9c0,0.3,0,0.5-0.1,0.8
		S6,207.8,5.9,208s-0.2,0.5-0.4,0.7s-0.3,0.4-0.4,0.6c-0.2,0.3-0.4,0.5-0.6,0.8s-0.4,0.5-0.6,0.7s-0.4,0.5-0.6,0.7s-0.4,0.5-0.6,0.7
		h2.1c0.2,0,0.3,0,0.4,0s0.2,0,0.3-0.1s0.1-0.1,0.2-0.2s0.2-0.3,0.3-0.5h0.7L6.2,213H1z"/>
	<path d="M11.1,204H12v6h1.4v0.8H12v2.3h-1.3v-2.3H7.3v-0.7L11.1,204z M10.7,206.3L8.5,210h2.3V206.3z"/>
	<path d="M39,213v-0.4c0.2-0.3,0.5-0.6,0.8-0.9s0.6-0.7,0.8-1s0.5-0.7,0.8-0.9s0.4-0.5,0.6-0.7c0.1-0.2,0.3-0.4,0.4-0.6
		s0.2-0.4,0.3-0.6s0.2-0.4,0.3-0.7s0.1-0.4,0.1-0.6c0-0.2,0-0.4-0.1-0.6s-0.1-0.4-0.3-0.5s-0.3-0.3-0.5-0.4s-0.4-0.2-0.7-0.2
		c-0.2,0-0.4,0-0.6,0.1s-0.4,0.2-0.5,0.4s-0.3,0.4-0.4,0.6s-0.2,0.5-0.3,0.8l-0.8-0.2c0.1-0.3,0.2-0.7,0.3-1s0.3-0.6,0.6-0.8
		s0.5-0.4,0.8-0.6s0.7-0.2,1.1-0.2c0.4,0,0.7,0.1,1,0.2s0.6,0.3,0.8,0.5s0.4,0.5,0.5,0.8s0.2,0.6,0.2,0.9c0,0.3,0,0.5-0.1,0.8
		s-0.2,0.5-0.3,0.8s-0.2,0.5-0.4,0.7s-0.3,0.4-0.4,0.6c-0.2,0.3-0.4,0.5-0.6,0.8s-0.4,0.5-0.6,0.7s-0.4,0.5-0.6,0.7
		s-0.4,0.5-0.6,0.7h2.1c0.2,0,0.3,0,0.4,0s0.2,0,0.3-0.1s0.1-0.1,0.2-0.2s0.2-0.3,0.3-0.5h0.7l-0.7,1.7H39z"/>
	<path d="M47.5,213.2c-0.2,0-0.4,0-0.7-0.1s-0.5-0.1-0.7-0.2s-0.4-0.2-0.5-0.3s-0.2-0.2-0.2-0.4c0-0.1,0.1-0.3,0.2-0.4
		s0.3-0.2,0.5-0.2c0.2,0,0.4,0,0.6,0.1s0.3,0.2,0.5,0.3c0.1,0.1,0.2,0.1,0.4,0.2s0.3,0.1,0.4,0.1c0.2,0,0.4-0.1,0.6-0.2
		s0.3-0.3,0.5-0.5s0.2-0.4,0.3-0.7s0.1-0.6,0.1-0.9c0-0.9-0.2-1.5-0.7-1.9s-1.2-0.6-2.3-0.6c-0.2,0-0.3,0-0.4-0.1s-0.1-0.2-0.1-0.3
		l1.2-3h3.6l-0.2,0.9h-2.7l-0.6,1.6c0.5,0,1,0,1.4,0.2s0.8,0.3,1.1,0.6s0.5,0.6,0.7,1s0.3,0.8,0.3,1.3c0,0.4-0.1,0.9-0.2,1.3
		s-0.4,0.8-0.7,1.1s-0.6,0.6-1,0.7S47.9,213.2,47.5,213.2z"/>
	<path d="M77,213v-0.4c0.2-0.3,0.5-0.6,0.8-0.9s0.6-0.7,0.8-1s0.5-0.7,0.8-0.9s0.4-0.5,0.6-0.7c0.1-0.2,0.3-0.4,0.4-0.6
		s0.2-0.4,0.3-0.6s0.2-0.4,0.3-0.7s0.1-0.4,0.1-0.6c0-0.2,0-0.4-0.1-0.6s-0.1-0.4-0.3-0.5s-0.3-0.3-0.5-0.4s-0.4-0.2-0.7-0.2
		c-0.2,0-0.4,0-0.6,0.1s-0.4,0.2-0.5,0.4s-0.3,0.4-0.4,0.6s-0.2,0.5-0.3,0.8l-0.8-0.2c0.1-0.3,0.2-0.7,0.3-1s0.3-0.6,0.6-0.8
		s0.5-0.4,0.8-0.6s0.7-0.2,1.1-0.2c0.4,0,0.7,0.1,1,0.2s0.6,0.3,0.8,0.5s0.4,0.5,0.5,0.8s0.2,0.6,0.2,0.9c0,0.3,0,0.5-0.1,0.8
		s-0.2,0.5-0.3,0.8s-0.2,0.5-0.4,0.7s-0.3,0.4-0.4,0.6c-0.2,0.3-0.4,0.5-0.6,0.8s-0.4,0.5-0.6,0.7s-0.4,0.5-0.6,0.7
		s-0.4,0.5-0.6,0.7h2.1c0.2,0,0.3,0,0.4,0s0.2,0,0.3-0.1s0.1-0.1,0.2-0.2s0.2-0.3,0.3-0.5h0.7l-0.7,1.7H77z"/>
	<path d="M85,207.8c0.1-0.1,0.3-0.2,0.5-0.3s0.4-0.2,0.6-0.2c0.4,0,0.8,0,1.1,0.1s0.7,0.3,0.9,0.6s0.5,0.6,0.6,1s0.2,0.8,0.2,1.2
		c0,0.4-0.1,0.8-0.2,1.2s-0.3,0.7-0.5,0.9s-0.5,0.5-0.8,0.6s-0.7,0.2-1.1,0.2c-0.4,0-0.8-0.1-1.2-0.3s-0.7-0.5-0.9-0.8
		s-0.4-0.7-0.6-1.2s-0.2-1-0.2-1.5c0-0.7,0.1-1.4,0.4-2.1s0.6-1.2,1.1-1.7s1-0.9,1.7-1.2s1.4-0.4,2.3-0.4l0,0.5
		c-0.5,0-0.9,0.1-1.4,0.3s-0.8,0.4-1.1,0.7s-0.6,0.6-0.8,0.9S85.2,207.3,85,207.8z M84.9,209.7c0,0.4,0,0.7,0.1,1.1s0.2,0.6,0.3,0.9
		s0.3,0.5,0.5,0.6s0.4,0.2,0.7,0.2c0.2,0,0.4-0.1,0.6-0.2s0.3-0.3,0.4-0.5s0.2-0.5,0.2-0.7s0.1-0.6,0-0.8c0-0.3-0.1-0.6-0.2-0.9
		s-0.2-0.5-0.3-0.7s-0.3-0.4-0.5-0.5s-0.4-0.2-0.6-0.1c-0.3,0-0.6,0.2-0.8,0.5S84.9,209.2,84.9,209.7z"/>
	<path d="M115,213v-0.4c0.2-0.3,0.5-0.6,0.8-0.9s0.6-0.7,0.8-1s0.5-0.7,0.8-0.9s0.4-0.5,0.6-0.7c0.1-0.2,0.3-0.4,0.4-0.6
		s0.2-0.4,0.3-0.6s0.2-0.4,0.3-0.7s0.1-0.4,0.1-0.6c0-0.2,0-0.4-0.1-0.6s-0.1-0.4-0.3-0.5s-0.3-0.3-0.5-0.4s-0.4-0.2-0.7-0.2
		c-0.2,0-0.4,0-0.6,0.1s-0.4,0.2-0.5,0.4s-0.3,0.4-0.4,0.6s-0.2,0.5-0.3,0.8l-0.8-0.2c0.1-0.3,0.2-0.7,0.3-1s0.3-0.6,0.6-0.8
		s0.5-0.4,0.8-0.6s0.7-0.2,1.1-0.2c0.4,0,0.7,0.1,1,0.2s0.6,0.3,0.8,0.5s0.4,0.5,0.5,0.8s0.2,0.6,0.2,0.9c0,0.3,0,0.5-0.1,0.8
		s-0.2,0.5-0.3,0.8s-0.2,0.5-0.4,0.7s-0.3,0.4-0.4,0.6c-0.2,0.3-0.4,0.5-0.6,0.8s-0.4,0.5-0.6,0.7s-0.4,0.5-0.6,0.7
		s-0.4,0.5-0.6,0.7h2.1c0.2,0,0.3,0,0.4,0s0.2,0,0.3-0.1s0.1-0.1,0.2-0.2s0.2-0.3,0.3-0.5h0.7l-0.7,1.7H115z"/>
	<path d="M126.9,204.2l0.2,0.2l-2.7,8.6h-1.2l2.4-7.9h-2.3c-0.2,0-0.3,0-0.4,0.1s-0.2,0.1-0.3,0.2s-0.2,0.2-0.3,0.3
		s-0.2,0.3-0.3,0.5l-0.7-0.2l0.8-1.9H126.9z"/>
	<path d="M153,213v-0.4c0.2-0.3,0.5-0.6,0.8-0.9s0.6-0.7,0.8-1s0.5-0.7,0.8-0.9s0.4-0.5,0.6-0.7c0.1-0.2,0.3-0.4,0.4-0.6
		s0.2-0.4,0.3-0.6s0.2-0.4,0.3-0.7s0.1-0.4,0.1-0.6c0-0.2,0-0.4-0.1-0.6s-0.1-0.4-0.3-0.5s-0.3-0.3-0.5-0.4s-0.4-0.2-0.7-0.2
		c-0.2,0-0.4,0-0.6,0.1s-0.4,0.2-0.5,0.4s-0.3,0.4-0.4,0.6s-0.2,0.5-0.3,0.8l-0.8-0.2c0.1-0.3,0.2-0.7,0.3-1s0.3-0.6,0.6-0.8
		s0.5-0.4,0.8-0.6s0.7-0.2,1.1-0.2c0.4,0,0.7,0.1,1,0.2s0.6,0.3,0.8,0.5s0.4,0.5,0.5,0.8s0.2,0.6,0.2,0.9c0,0.3,0,0.5-0.1,0.8
		s-0.2,0.5-0.3,0.8s-0.2,0.5-0.4,0.7s-0.3,0.4-0.4,0.6c-0.2,0.3-0.4,0.5-0.6,0.8s-0.4,0.5-0.6,0.7s-0.4,0.5-0.6,0.7
		s-0.4,0.5-0.6,0.7h2.1c0.2,0,0.3,0,0.4,0s0.2,0,0.3-0.1s0.1-0.1,0.2-0.2s0.2-0.3,0.3-0.5h0.7l-0.7,1.7H153z"/>
	<path d="M164.7,206.2c0,0.3,0,0.5-0.1,0.8s-0.2,0.4-0.3,0.6s-0.3,0.3-0.4,0.5s-0.3,0.2-0.5,0.3c0.5,0.2,0.9,0.5,1.2,0.8
		s0.4,0.8,0.4,1.4c0,0.4-0.1,0.7-0.2,1.1s-0.3,0.6-0.6,0.8s-0.6,0.4-0.9,0.5s-0.7,0.2-1.1,0.2c-0.4,0-0.7-0.1-1-0.2
		s-0.6-0.3-0.9-0.5s-0.4-0.5-0.6-0.7s-0.2-0.6-0.2-0.9c0-0.3,0-0.6,0.1-0.8s0.2-0.5,0.4-0.7s0.3-0.4,0.5-0.5s0.4-0.3,0.6-0.3
		c-0.2-0.1-0.4-0.2-0.5-0.3s-0.3-0.3-0.5-0.5s-0.2-0.4-0.3-0.6s-0.1-0.5-0.1-0.8c0-0.3,0.1-0.6,0.2-0.9s0.3-0.5,0.5-0.7
		s0.5-0.4,0.8-0.5s0.7-0.2,1.1-0.2c0.3,0,0.6,0,0.9,0.1s0.6,0.2,0.8,0.4s0.4,0.4,0.6,0.7S164.7,205.8,164.7,206.2z M160.6,210.9
		c0,0.3,0,0.5,0.1,0.7s0.2,0.4,0.4,0.5s0.3,0.2,0.5,0.3s0.4,0.1,0.6,0.1c0.2,0,0.4,0,0.6-0.1s0.4-0.2,0.5-0.3s0.3-0.3,0.4-0.5
		s0.1-0.4,0.1-0.7c0-0.3,0-0.6-0.1-0.8s-0.2-0.4-0.4-0.5s-0.4-0.3-0.6-0.4s-0.5-0.2-0.8-0.4c-0.4,0.2-0.8,0.5-1,0.8
		S160.6,210.4,160.6,210.9z M160.9,206.2c0,0.2,0,0.4,0.1,0.6s0.2,0.4,0.4,0.5s0.3,0.3,0.5,0.4s0.4,0.2,0.7,0.3
		c0.3-0.2,0.5-0.4,0.7-0.7s0.3-0.6,0.3-1c0-0.3,0-0.5-0.1-0.8s-0.2-0.4-0.3-0.5s-0.3-0.3-0.4-0.3s-0.3-0.1-0.5-0.1
		c-0.2,0-0.3,0-0.5,0.1s-0.3,0.2-0.4,0.3s-0.2,0.3-0.3,0.5S160.9,205.9,160.9,206.2z"/>
	<path d="M191.5,213v-0.4c0.2-0.3,0.5-0.6,0.8-0.9s0.6-0.7,0.8-1s0.5-0.7,0.8-0.9s0.4-0.5,0.6-0.7c0.1-0.2,0.3-0.4,0.4-0.6
		s0.2-0.4,0.3-0.6s0.2-0.4,0.3-0.7s0.1-0.4,0.1-0.6c0-0.2,0-0.4-0.1-0.6s-0.1-0.4-0.3-0.5s-0.3-0.3-0.5-0.4s-0.4-0.2-0.7-0.2
		c-0.2,0-0.4,0-0.6,0.1s-0.4,0.2-0.5,0.4s-0.3,0.4-0.4,0.6s-0.2,0.5-0.3,0.8l-0.8-0.2c0.1-0.3,0.2-0.7,0.3-1s0.3-0.6,0.6-0.8
		s0.5-0.4,0.8-0.6s0.7-0.2,1.1-0.2c0.4,0,0.7,0.1,1,0.2s0.6,0.3,0.8,0.5s0.4,0.5,0.5,0.8s0.2,0.6,0.2,0.9c0,0.3,0,0.5-0.1,0.8
		s-0.2,0.5-0.3,0.8s-0.2,0.5-0.4,0.7s-0.3,0.4-0.4,0.6c-0.2,0.3-0.4,0.5-0.6,0.8s-0.4,0.5-0.6,0.7s-0.4,0.5-0.6,0.7
		s-0.4,0.5-0.6,0.7h2.1c0.2,0,0.3,0,0.4,0s0.2,0,0.3-0.1s0.1-0.1,0.2-0.2s0.2-0.3,0.3-0.5h0.7l-0.7,1.7H191.5z"/>
	<path d="M202,209.4c-0.2,0.2-0.3,0.3-0.5,0.4s-0.4,0.2-0.7,0.2c-0.4,0-0.8,0-1.1-0.2s-0.7-0.3-0.9-0.6s-0.5-0.6-0.6-1
		s-0.2-0.8-0.2-1.2c0-0.4,0.1-0.8,0.2-1.2s0.3-0.7,0.5-0.9s0.5-0.5,0.8-0.6s0.7-0.2,1.1-0.2c0.4,0,0.8,0.1,1.2,0.3s0.7,0.5,0.9,0.8
		s0.4,0.7,0.6,1.2s0.2,1,0.2,1.5c0,0.7-0.1,1.4-0.4,2.1s-0.6,1.2-1.1,1.7s-1,0.9-1.7,1.2s-1.4,0.4-2.3,0.4l0-0.6
		c0.5,0,1-0.2,1.4-0.3s0.8-0.4,1.1-0.6s0.6-0.6,0.9-0.9S201.9,210,202,209.4z M202.1,207.6c0-0.4,0-0.7-0.1-1.1s-0.2-0.7-0.3-0.9
		s-0.3-0.5-0.5-0.7s-0.4-0.2-0.7-0.2c-0.2,0-0.4,0.1-0.6,0.2s-0.3,0.3-0.4,0.5s-0.2,0.5-0.2,0.8s-0.1,0.6,0,0.9
		c0,0.3,0.1,0.6,0.2,0.9s0.2,0.5,0.3,0.7s0.3,0.4,0.5,0.5s0.4,0.2,0.6,0.1c0.3-0.1,0.6-0.2,0.9-0.5S202.1,208.1,202.1,207.6z"/>
	<path d="M233.5,205.9c0,0.2,0,0.4-0.1,0.6c-0.1,0.2-0.2,0.4-0.3,0.6s-0.3,0.3-0.4,0.5s-0.4,0.3-0.6,0.4c0.2,0.1,0.5,0.2,0.7,0.3
		s0.4,0.3,0.6,0.5s0.3,0.4,0.4,0.7c0.1,0.3,0.2,0.5,0.2,0.8c0,0.4-0.1,0.8-0.2,1.1c-0.1,0.3-0.3,0.6-0.5,0.8s-0.5,0.4-0.8,0.6
		s-0.7,0.3-1.1,0.4c-0.3,0.1-0.6,0.1-0.9,0.1s-0.6,0-0.8-0.1c-0.2-0.1-0.4-0.2-0.6-0.3s-0.2-0.3-0.2-0.4c0-0.1,0.1-0.3,0.2-0.4
		s0.3-0.2,0.5-0.2c0.2,0,0.5,0.1,0.6,0.2s0.3,0.2,0.5,0.3c0.1,0.1,0.3,0.2,0.4,0.2s0.2,0,0.3,0c0.2,0,0.4-0.1,0.5-0.1
		s0.3-0.2,0.5-0.4s0.3-0.3,0.4-0.5s0.1-0.5,0.2-0.7c0-0.8-0.2-1.3-0.6-1.6s-1.1-0.4-2.1-0.3v-0.6c0.3-0.1,0.6-0.2,0.9-0.3
		s0.5-0.3,0.7-0.5s0.3-0.4,0.4-0.6s0.1-0.5,0.1-0.7c0-0.4-0.1-0.7-0.3-0.9s-0.4-0.3-0.8-0.3c-0.3,0-0.7,0.1-1,0.4s-0.5,0.6-0.6,1.1
		l-0.8-0.1c0.1-0.3,0.2-0.6,0.4-0.9s0.4-0.5,0.6-0.7s0.5-0.4,0.8-0.5s0.6-0.2,1-0.2c0.3,0,0.6,0,0.8,0.1s0.5,0.2,0.7,0.4
		c0.2,0.2,0.3,0.4,0.5,0.6C233.5,205.4,233.5,205.6,233.5,205.9z"/>
	<path d="M234.8,208.7c0-0.6,0.1-1.2,0.2-1.7s0.3-1,0.5-1.5s0.5-0.8,0.9-1s0.8-0.4,1.3-0.4s0.9,0.1,1.3,0.4s0.7,0.6,0.9,1
		s0.4,0.9,0.5,1.5s0.2,1.1,0.2,1.7c0,0.6-0.1,1.2-0.2,1.7s-0.3,1-0.5,1.5s-0.5,0.8-0.9,1s-0.8,0.4-1.3,0.4c-0.5,0-0.9-0.1-1.3-0.4
		s-0.7-0.6-0.9-1s-0.4-0.9-0.5-1.5S234.8,209.3,234.8,208.7z M237.7,212.6c0.2,0,0.5-0.1,0.6-0.3s0.3-0.5,0.5-0.8s0.2-0.8,0.3-1.2
		s0.1-1,0.1-1.6c0-0.6,0-1.1-0.1-1.6s-0.2-0.9-0.3-1.3s-0.3-0.6-0.5-0.8s-0.4-0.3-0.6-0.3s-0.4,0.1-0.6,0.3s-0.4,0.5-0.5,0.8
		s-0.2,0.8-0.3,1.3s-0.1,1-0.1,1.6c0,0.6,0,1.1,0.1,1.6s0.2,0.9,0.3,1.2s0.3,0.6,0.5,0.8S237.5,212.6,237.7,212.6z"/>
	<path d="M5.5,243.9c0,0.2,0,0.4-0.1,0.6c-0.1,0.2-0.2,0.4-0.3,0.6s-0.3,0.3-0.4,0.5s-0.4,0.3-0.6,0.4c0.2,0.1,0.5,0.2,0.7,0.3
		s0.4,0.3,0.6,0.5s0.3,0.4,0.4,0.7c0.1,0.3,0.2,0.5,0.2,0.8c0,0.4-0.1,0.8-0.2,1.1c-0.1,0.3-0.3,0.6-0.5,0.8s-0.5,0.4-0.8,0.6
		s-0.7,0.3-1.1,0.4c-0.3,0.1-0.6,0.1-0.9,0.1s-0.6,0-0.8-0.1c-0.2-0.1-0.4-0.2-0.6-0.3s-0.2-0.3-0.2-0.4c0-0.1,0.1-0.3,0.2-0.4
		s0.3-0.2,0.5-0.2c0.2,0,0.5,0.1,0.6,0.2s0.3,0.2,0.5,0.3c0.1,0.1,0.3,0.2,0.4,0.2s0.2,0,0.3,0c0.2,0,0.4-0.1,0.5-0.1
		s0.3-0.2,0.5-0.4s0.3-0.3,0.4-0.5s0.1-0.5,0.2-0.7c0-0.8-0.2-1.3-0.6-1.6S3,246.6,2,246.8v-0.6c0.3-0.1,0.6-0.2,0.9-0.3
		s0.5-0.3,0.7-0.5s0.3-0.4,0.4-0.6s0.1-0.5,0.1-0.7c0-0.4-0.1-0.7-0.3-0.9s-0.4-0.3-0.8-0.3c-0.3,0-0.7,0.1-1,0.4s-0.5,0.6-0.6,1.1
		l-0.8-0.1c0.1-0.3,0.2-0.6,0.4-0.9s0.4-0.5,0.6-0.7s0.5-0.4,0.8-0.5s0.6-0.2,1-0.2c0.3,0,0.6,0,0.8,0.1s0.5,0.2,0.7,0.4
		c0.2,0.2,0.3,0.4,0.5,0.6C5.5,243.4,5.5,243.6,5.5,243.9z"/>
	<path d="M7.9,243.2l2.6-1.4v7.8c0,0.2,0,0.4,0.1,0.5s0.1,0.2,0.2,0.3s0.2,0.1,0.4,0.1s0.4,0,0.6,0v0.6H8v-0.6c0.2,0,0.4,0,0.5,0
		s0.3,0,0.4-0.1s0.2-0.1,0.2-0.3s0.1-0.3,0.1-0.5V244c0-0.2,0-0.3,0-0.4s0-0.2-0.1-0.2s-0.2,0-0.4,0.1s-0.5,0.2-0.8,0.3V243.2z"/>
</g>
<g id="cal_x5F_point">
	<path class="white" d="M236,95c-0.4,0.4-0.9,0.6-1.4,0.6c-0.4,0-0.8,0-1.2-0.2s-0.7-0.4-1-0.7c-0.3-0.3-0.5-0.6-0.6-1
		c-0.2-0.4-0.2-0.9-0.2-1.3c0-0.4,0.1-0.9,0.2-1.3c0.1-0.4,0.3-0.7,0.5-1s0.5-0.5,0.9-0.7c0.3-0.2,0.7-0.2,1.2-0.2
		c0.5,0,0.9,0.1,1.3,0.3c0.4,0.2,0.7,0.5,1,0.8c0.3,0.4,0.5,0.8,0.6,1.3c0.1,0.5,0.2,1.1,0.2,1.7c0,0.8-0.1,1.5-0.4,2.2
		c-0.3,0.7-0.6,1.3-1.1,1.8c-0.5,0.5-1.1,0.9-1.8,1.3c-0.7,0.3-1.5,0.5-2.4,0.5l0-0.5c1.1-0.1,2-0.5,2.7-1.1
		C235.2,97,235.7,96.1,236,95z M236.2,93c0-0.4,0-0.8-0.1-1.2c-0.1-0.4-0.2-0.7-0.4-1c-0.2-0.3-0.4-0.5-0.6-0.7s-0.5-0.3-0.8-0.3
		c-0.3,0-0.5,0.1-0.7,0.2s-0.4,0.4-0.5,0.6c-0.1,0.3-0.2,0.5-0.3,0.9c0,0.3-0.1,0.6,0,0.9c0,0.3,0.1,0.7,0.2,1
		c0.1,0.3,0.2,0.6,0.4,0.8c0.2,0.2,0.4,0.4,0.6,0.6c0.2,0.1,0.5,0.2,0.7,0.1c0.2,0,0.4-0.1,0.6-0.2c0.2-0.1,0.3-0.2,0.5-0.4
		c0.1-0.2,0.2-0.4,0.3-0.6C236.2,93.6,236.2,93.3,236.2,93z"/>
</g>
</svg>
