<?xml version="1.0" encoding="utf-8"?>
<!-- Generator: Adobe Illustrator 24.2.1, SVG Export Plug-In . SVG Version: 6.00 Build 0)  -->
<svg version="1.1" id="Layer_1" xmlns="http://www.w3.org/2000/svg" xmlns:xlink="http://www.w3.org/1999/xlink" x="0px" y="0px"
	 viewBox="0 0 66.5 29.5" style="enable-background:new 0 0 66.5 29.5;" xml:space="preserve">
<style type="text/css">
	.st0{fill:#2BF083;}
</style>
<path class="st0" d="M64.4,4.1c-2.9,4.3-6.9,7.1-12.1,8.5h-0.4c-1.2-0.1-1.8-0.3-1.8-0.6l0-0.1c2.2-0.9,3.7-1.7,4.7-2.5
	c2.3-1.8,3.4-3.6,3.2-5.4l-0.5-1.2c-1.2-1.1-2.1-1.6-2.8-1.6c-0.9,0-1.8,0.2-2.5,0.7l-0.2-0.1c-0.9,0.5-1.5,0.8-1.6,0.8
	c-1.9,1.8-3,2.7-3.2,2.7h-0.2c0-0.2,0-1.3,0.1-3.2c-0.1-0.6-0.6-1-1.4-1.3c-0.6,0-1,0.6-1,1.8c-0.1,0.2-0.2,0.3-0.2,0.5
	c-1.1,0.7-1.6,1.2-1.6,1.4c-2.6,3-4.4,4.5-5.5,4.5h-0.7C36.2,9,36,8.7,35.9,8V7.6c0-1.4,0.5-3.1,1.6-5c0-0.1,0-0.1-0.1-0.1
	c0-0.7-0.5-1.1-1.5-1.1c-1-0.9-1.9-1.4-2.7-1.4c-1.4,0.1-2.1,0.3-2.1,0.6l-2.7,1.8c0,0,0-0.1,0-0.1L28.2,2c-0.2,0.2-0.3,0.5-0.5,0.7
	c-2.3,1.6-3.7,3.2-4.4,4.8c-1.3,1.1-2.4,1.6-3.2,1.7H20c-0.4,0-0.6-0.2-0.6-0.7l-0.1-0.6c-0.1-1.1,0.4-3,1.2-5.7
	c0-0.7-0.5-1.2-1.5-1.5c-0.6,0-2,0.8-4,2.5H15c-0.7-1.4-1.6-2.1-2.8-2.1h-0.6c-1.6,0.6-2.5,1-2.4,1.2C8.1,2.7,6.8,3.9,5.3,5.7H5.1
	V5.6c0-0.2,0-1.2,0.2-3l-0.7-1H3.5C3,2.1,2.9,3.1,3.3,4.7C2.9,7.4,1.8,10,0,12.7c0,0.6,0.4,1,1.2,1.2h0.2c0.5,0,1.1-0.9,1.7-2.8
	c3.7-4.9,6.7-7.7,9-8.4c0.6,0,0.9,0.2,0.9,0.4l0.1,1.4c-0.4,1.1-0.6,1.7-0.6,1.9C11.5,7.3,11,8.1,11,8.8L11,9
	c0.2,0.5,0.5,0.7,0.8,0.7h0.2c0.2,0,0.5-0.2,0.9-0.5c1.7-3.1,3.4-5.2,5.2-6.2c0.1,0,0.2,0,0.3,0.1c-0.6,1.6-0.9,3-1.1,4.2l0,0.6
	c0,0.3,0.1,0.8,0.2,1.3c0.6,1.4,1.6,2.1,3,2.1c0.8,0,1.6-0.4,2.6-1.1c0.5,1.2,1.4,1.8,2.7,1.8h0.4c1.6,0,3.8-1.2,6.7-3.6h0.4v0.2
	c0.8,1.9,2,2.8,3.6,2.8c1.8,0,4-1.7,6.6-5.1c0.3-0.4,0.7-0.9,0.9-1.4c0,1.7-0.2,2.9-0.4,3.6c-0.6,1-0.8,1.6-0.8,2l-1.1,0.9
	c-1.3,2.2-2,3.3-2.1,3.3l0.1,0.6c0,0.1-0.2,0.3-0.6,0.5c0.1,0.9-0.1,1.4-0.6,1.4c-1.3,2.8-2.4,5.8-3.3,8.9c-0.1,0.9-0.3,1.4-0.5,1.6
	l0,0.4c0.1,0.7,0.6,1.1,1.5,1.3H37c0.6,0,1.7-1.1,3.3-3.2c1.4-1.7,2.6-4.3,3.5-7.7c0.6-1.8,1.3-4.3,2.1-7.3c0.1,0,0.8,0.7,2,2
	c1.6,1.2,3.9,1.4,6.8,0.6c2.8-0.8,5.8-2.8,8.8-5.9c1.5-2,2.5-3.8,2.9-5.3V2.6C65.6,2.6,64.9,3.1,64.4,4.1z M34,3.2
	c0,0.8-0.7,2-2.2,3.5c-2.4,2.3-4.3,3.4-5.7,3.4h-0.2c-0.1,0-0.2-0.1-0.2-0.2V9c0.1-0.6,0.3-1.2,0.7-1.9c0.5-0.6,1-1.3,1.4-1.9
	c1.9-1.9,3.6-3.1,5.3-3.6C33.6,1.6,34,2.1,34,3V3.2z M41.3,14.7l0.1,0.4c-0.1,0-0.2-0.1-0.3-0.2l0-0.1H41.3z M37.9,21.2h-0.1l0-0.2
	c0-0.1,0-0.2,0.2-0.2h0.1l0,0.2C38.1,21.1,38.1,21.2,37.9,21.2z M41.5,18.5c-0.7,2.9-1.8,5.2-3.3,6.9h-0.1c0.1-1.1,0.1-1.8,0.1-2.1
	l-0.1-0.6c0.5-0.5,0.7-1,0.6-1.5c0.8-1.2,1.3-2.2,1.6-3l2.1-3h0.2C42.5,15.7,42.2,16.8,41.5,18.5z M48.7,10.4
	c-0.4,0-0.9-0.1-1.5-0.2c-0.6,0.2-0.9,0.4-1.1,0.4H46c0-0.2,0.2-0.7,0.6-1.5c3.3-3.7,5.8-5.7,7.5-6c0.6,0,1,0.3,1.1,0.9l0.1,0.5
	c-0.1,1.1-0.7,2.3-1.8,3.8c-2.4,1.5-3.9,2.2-4.5,2.2H48.7z"/>
</svg>
