<?xml version="1.0" encoding="utf-8"?>
<!-- Generator: Adobe Illustrator 24.2.1, SVG Export Plug-In . SVG Version: 6.00 Build 0)  -->
<svg version="1.1" id="Layer_1" xmlns="http://www.w3.org/2000/svg" xmlns:xlink="http://www.w3.org/1999/xlink" x="0px" y="0px"
	 viewBox="0 0 201 56" style="enable-background:new 0 0 201 56;" xml:space="preserve">
<style type="text/css">
	.st0{fill:#2BF083;}
</style>
<path class="st0" d="M191.1,24.8h-0.4v-0.1h0.4V24.8z M197.9,25.9v0.3c0.3,0,0.4,0.1,0.4,0.3v0.1c-0.5-0.1-0.9-0.2-1.1-0.4
	c-0.3,0.1-0.5,0.1-0.5,0.1c-0.1,0-0.2,0-0.4-0.1c-1.1,0.1-1.7,0.2-1.7,0.4l-0.6-0.1h-0.1c-0.1,0-0.1,0-0.1,0.1
	c-0.2-0.1-0.6-0.2-1.2-0.3c-1.2,0.1-2.1,0.3-2.8,0.5H183c-0.1,0-0.1,0-0.1,0.1l-0.3-0.1h-4.8c-0.3,0-0.7,0-1.1,0.1
	c-0.2-0.1-0.3-0.1-0.5-0.1c-0.7,0.1-1.1,0.2-1.3,0.3l-0.8-0.1h-0.1c-0.3,0-0.5,0-0.6,0.1l-0.8-0.1h-0.4c-0.9,0-1.3,0.1-1.3,0.3
	l-0.3-0.1h-0.4c-0.3,0-0.5,0-0.6,0.1l-0.8-0.1h-0.9c-0.3,0-0.9,0.1-1.8,0.2c-0.8,0-3.5,0-8,0.1c-0.1,0-0.4,0-1-0.1l-0.5,0.3
	c0-0.1-0.1-0.2-0.4-0.4H156l-0.8,0.4c-0.3-0.2-0.7-0.3-1-0.3c-0.4,0.3-0.8,0.4-1,0.4c-0.4,0-1.1-0.1-2.1-0.4
	c-0.4,0.4-0.7,0.5-0.9,0.5l-1.3-0.1c-0.9,0.1-2,0.3-3.3,0.4c-0.2-0.1-0.3-0.1-0.4-0.1l-5.2,0.5l-0.2-0.1c-1.1,0.1-1.7,0.1-1.7,0.2
	l-0.2-0.1h-0.1c-0.2,0-1.3,0.2-3.3,0.6l-0.3-0.1H134l-3.4,0.6l-0.2-0.1c-7.1,1-12.1,1.8-15.2,2.6h-1.4c-0.4,0.3-2,0.7-4.6,1.3
	c-0.9,0.2-1.3,0.8-1.3,1.7c-0.2,0-0.5,0.8-0.8,2.3c-1.7,4.8-3.3,8-4.7,9.6c-2.5,3.8-5.7,6.4-9.6,7.9c-1.7,0.6-3.3,0.9-4.6,0.9h-0.9
	c-2.7-0.4-4.6-1-5.8-1.8c-2.4-1.3-3.6-3.1-3.6-5.4c0-1.6,0.9-3.2,2.8-4.8c0.9-1.1,2.7-2.4,5.4-4c0.2,0,1-0.5,2.6-1.4
	c6.4-2.8,10.1-4.2,11-4.2c0.9-0.6,2.7-1.2,5.4-1.8c0.9-0.1,1.4-0.5,1.4-1.1v-0.6l-0.1-0.8c0-0.1,0.2-0.3,0.6-0.6l-0.1-0.6
	c0.1-0.2,0.1-0.3,0.1-0.4l-0.1-0.2l0.1-0.6l-0.1-0.5c0.1-0.2,0.1-0.3,0.1-0.4c-0.1-0.4-0.1-0.7-0.1-0.9h0.1l-0.1-0.3v-0.4l0.2-0.4
	l-0.1-0.5l0.5-1.3l-0.6-0.8v-1.3l0.2-0.9c-0.2-0.5-0.2-0.9-0.2-1h-0.1c-2.1,2.8-3.3,4.2-3.7,4.2c-0.8,1.3-1.7,1.9-2.7,1.9
	c-1.4,0-2.2-0.7-2.4-2.2c0.1-0.3,0.2-0.4,0.3-0.4c0-0.1,0-0.1-0.1-0.1l0.1-0.9v-0.8c0.2,0,0.4-0.4,0.6-1.1c-0.3,0.3-0.7,0.7-1.1,1.1
	c-1.5,1.4-3,2.3-4.6,2.9h-0.4c-1.6,0-2.6-0.6-3.1-1.9c0-0.2,0-0.3-0.1-0.3c0.1-0.3,0.1-0.4,0.2-0.4l-0.1-0.2v-0.7
	c0.2-1.2,1.2-3,2.8-5.2c0-0.2,0.3-0.6,1-1.4c0.4-0.8,0.6-1.3,0.6-1.5v-0.1h-0.4c-1.6,0.9-3,1.3-4.3,1.3h-0.1c-0.1,0-0.6,0.7-1.6,2
	c-0.1,0-0.2,0.1-0.3,0.1c-2,4.2-4.9,6.7-8.7,7.4c-0.4,0-0.8,0.1-1.3,0.2c-2.3,0-3.9-1.1-4.7-3.3c-0.1,0.1-0.2,0.2-0.3,0.3
	c-3.1,3-5.9,4.5-8.6,4.5h-0.6c-1.9,0-3.3-1-4.1-3L59,19.5c0-0.4,0.1-0.9,0.1-1.2c-0.4,0.4-0.8,0.8-1.2,1.2c-3.1,3-5.9,4.5-8.6,4.5
	h-0.6c-1.9,0-3.3-1-4.1-3l-0.1-1.4c0-0.5,0.1-1,0.2-1.5c-2.4,3-4.4,4.5-6.1,4.5c-1.6,0-2.8-0.9-3.6-2.8v-0.2h-0.4
	c-2.9,2.4-5.1,3.6-6.7,3.6h-0.4c-1.1,0-1.9-0.4-2.5-1.3c-2.6,2.1-4.5,3.8-5.6,5.1c-1,4.2-1.9,6.8-2.6,7.7c0,0.1-0.4,1-1.1,2.7
	c0,0.2-0.4,0.8-1.1,1.9c-0.8,1.8-1.9,3.8-3.3,6c-1.4,2.3-3,3.9-4.7,4.9c-1.7,1-3.1,1.3-4.1,1c-1-0.4-1.5-1.3-1.6-2.8
	c-0.1-1.5,0.3-3.6,1.2-6.2c0.8-2.6,2.9-5.7,6.2-9.3c3.8-3.9,7-6.4,9.4-7.5l1.5-7.2v-0.4H19c-1.6,2.1-3.4,3.2-5.3,3.2
	c-1.9-0.4-2.8-1.2-2.8-2.6v-0.5c0-2.4,2.3-4.6,6.9-6.7c0.6-0.1,1-0.2,1.1-0.2c1.6,0.4,2.4,0.9,2.4,1.7c0.2,0,0.4,0.5,0.5,1.4
	c0,2-0.4,5-1.2,9c0.7-0.4,1.3-0.9,1.7-1.4s1.3-1.2,2.5-2.2c0,0,0.1-0.1,0.1-0.1c0.5-1.8,2-3.6,4.6-5.5l3.3-2.1
	c0-0.3,0.7-0.5,2.1-0.6c0.8,0,1.7,0.5,2.7,1.4c1,0,1.5,0.4,1.5,1.1c0.1,0,0.1,0,0.1,0.1c-1.1,2-1.6,3.7-1.6,5V19
	c0.2,0.7,0.4,1.1,0.6,1.1h0.7c1.1,0,2.9-1.5,5.5-4.5c0-0.2,0.4-0.6,1.2-1.1c0-0.6,0-1.1,0.2-1.5c0.2-0.5,0.4-0.8,0.8-0.8
	c0-0.3,0.3-0.9,1-1.9c0-0.9,1-2.4,2.9-4.7C53.4,1.8,55.6,0,57.1,0c1.2,0,1.9,0.5,2,1.5C58.7,4.3,58,6.2,57,7.4
	c-1.2,1.8-3.1,3.5-5.5,5c-2.6,1.1-3.8,1.8-3.8,2.2c-0.4,0.7-0.7,2.3-0.9,4.9l0.1,1.1c0.1,0.9,0.6,1.4,1.6,1.4h0.5
	c1.6,0,3.4-0.7,5.2-2c1.2-0.8,2.4-1.7,3.5-2.7c0.1-0.3,1-1.1,2.5-2.3c-0.1-0.8,0-1.5,0.2-2c0.2-0.5,0.4-0.8,0.8-0.8
	c0-0.3,0.3-0.9,1-1.9c0-0.9,1-2.4,2.9-4.7C67.9,1.8,70.1,0,71.6,0c1.2,0,1.9,0.5,2,1.5c-0.4,2.8-1.1,4.7-2.1,5.9
	c-1.2,1.8-3.1,3.5-5.5,5c-2.6,1.1-3.8,1.8-3.8,2.2c-0.4,0.7-0.7,2.3-0.9,4.9l0.1,1.1c0.1,0.9,0.6,1.4,1.6,1.4h0.5
	c1.6,0,3.4-0.7,5.2-2c1.2-0.8,2.4-1.7,3.5-2.7c0.1-0.2,0.4-0.6,1.1-1.2c0.5-1.2,1.7-2.5,3.5-4c1.5-1,2.7-1.5,3.6-1.5
	c0.5,0,1,0.3,1.6,1c0,1.1-0.3,2-0.8,2.7c-1.9,2.2-3.5,3.4-4.7,3.7L75,18.6V19c0,0.9,0.8,1.3,2.4,1.3c1.1-0.1,2.1-0.3,3.2-0.7
	c1.1-0.4,2.6-1.7,4.5-3.9c0.2-0.5,0.6-1,1-1.5c0,0,0-0.1-0.1-0.1c0-0.4,0.3-0.7,0.9-1.1c0-0.1,0.1-0.3,0.2-0.5l-0.7-0.8v-0.1
	c0-0.4,0.2-0.7,0.7-1h0.7l1.5-0.4l0.7,0.5c1.8-0.4,3.2-0.8,4.2-1.3c0.3,0,0.5,0,0.8-0.1c0.4,0,0.8,0.5,1.2,1.5
	c0,0.8-1.1,2.8-3.2,6.1c-0.7,1.5-1.1,2.8-1.1,3.7c0,0.3,0.2,0.5,0.6,0.5H93c1.6-0.5,4-2.4,7.1-5.7c0.8-1.9,1.4-2.8,1.9-2.8h0.1
	c0.5,0,0.8,0.3,0.8,1c-1.9,4-2.8,6.6-2.8,7.7v0.3l0.1,0.6c1-0.3,2.2-1.3,3.7-3c1.8-2.3,2.7-3.6,2.7-3.9c0.6-0.9,1.1-2.1,1.4-3.6
	c0.2,0,0.5-0.1,0.8-0.4h0.2c0.6,0.2,1,0.6,1.2,1.3c-0.7,2.4-1,5-1,7.9c0,0.1,0,0.1,0.1,0.1l-0.1,0.6c0,0.4,0,1.3,0.1,2.6
	c-0.2,0.4-0.3,0.6-0.3,0.8c0,0.2,0,0.4,0.1,0.5c-0.2,3.1-0.4,5-0.5,5.7l0.8,0.1c0.5-0.2,0.9-0.4,1.1-0.5h0.4c0.1,0,0.1,0,0.1,0.1
	c0.5-0.2,1.2-0.4,2.2-0.6l0.4,0.3h0.1c0-0.4,1.5-0.7,4.5-1.1c0.3-0.3,0.6-0.5,1-0.5h0.1c0,0.3,0.1,0.4,0.2,0.4l0.5-0.5l0.9,0.1h0.3
	c0.2-0.3,0.7-0.5,1.3-0.6c0.1,0,0.1,0,0.1,0.1l1.6-0.1h1.1l1.6-0.5c0,0,0.2,0,0.5,0.1c0.4,0,1.6-0.3,3.7-0.8
	c0.3,0.2,0.6,0.3,0.8,0.3c0.1-0.4,0.4-0.5,0.9-0.5h0.6l0.5,0.4h0.1c0-0.3,0.7-0.5,2.1-0.8h0.3l0.5,0.4c0.1-0.3,0.3-0.5,0.4-0.5h0.4
	c2.1,0,3.1-0.1,3.1-0.4l0.6,0.1h0.5c0.6-0.2,0.9-0.3,1-0.3h1c0.1,0,0.1,0,0.1-0.1l0.2,0.1h3.9c0.7,0,1.6,0,2.7,0.1
	c0.4-0.1,0.6-0.2,0.6-0.3c0.5,0.3,0.9,0.4,1.1,0.4c0.3-0.2,0.6-0.3,0.8-0.3h0.4l0.9,0.1c0-0.2,0.1-0.3,0.2-0.3c0.1,0,0.1,0,0.1,0.1
	l0.9-0.1h0.4c0.9,0.3,1.5,0.4,1.6,0.4c0.1-0.4,0.2-0.5,0.4-0.5h0.1c0.2,0,0.3,0.1,0.3,0.4h0.4l0.5-0.5h0.6c0.4,0,1.1,0.1,2.1,0.3
	l0.1-0.3l0.6,0.1c0.3,0,0.6-0.1,0.9-0.2c0.3,0,0.4,0.1,0.4,0.4h0.1l0.4-0.3h0.6v0.1l-0.1,0.3h1c0-0.5,0.2-0.8,0.5-0.8l0.3,0.1h0.3
	l1.6-0.1l0.3,0.5c1.1-0.4,2.1-0.6,2.8-0.6c0.4,0.3,0.8,0.4,1.1,0.4c0-0.2,0.1-0.3,0.2-0.3h0.1l0.4,0.3h0.4l0.5-0.4l1.6,0.3
	c0.5-0.2,0.9-0.3,1.1-0.3l0.3,0.1l0.3-0.1L181,25c0.3,0,0.6-0.1,1-0.4h0.9c0.6,0.2,0.9,0.3,1,0.3h1.7l0.6,0.5h0.1
	c0-0.4,0.1-0.6,0.4-0.6c1.2,0.2,2,0.4,2.2,0.6h0.1c0.6,0,1.1-0.1,1.4-0.2l0.8,0.1l0.5-0.3l0.2,0.1c0.5-0.1,0.9-0.1,1.2-0.1h0.1
	c0.1,0,0.1,0,0.1,0.1l0.6-0.3c0.1,0.1,0.3,0.1,0.5,0.1h0.1c0.1,0,0.1,0,0.1-0.1c0.3,0.2,0.5,0.3,0.8,0.3h0.6v0.2h0.4
	c0.2,0,0.4,0,0.5,0.1c0.2-0.1,0.3-0.1,0.5-0.1h0.3c0.1,0,0.2,0.1,0.4,0.4C198.3,25.8,198.1,25.9,197.9,25.9z M63.8,11.1l0.2,0.1
	c2.5-1.3,4.5-3,5.8-5.2c0.5-0.4,1.2-1.7,1.9-3.9l0-0.6c-0.7,0-2.2,1.2-4.3,3.6C65.1,8.2,63.9,10.2,63.8,11.1z M49.3,11.1l0.2,0.1
	c2.5-1.3,4.5-3,5.8-5.2c0.5-0.4,1.2-1.7,1.9-3.9l0-0.6c-0.7,0-2.2,1.2-4.3,3.6C50.7,8.2,49.5,10.2,49.3,11.1z M18.9,13.4l0.1-0.9
	h-0.5c-1.6,0.3-3.2,1.4-5,3.5c-0.3,0.6-0.5,1.1-0.5,1.5v1c0.1,0.2,0.3,0.4,0.7,0.4h0.9c1.8-1.1,3.2-2.5,4.3-4.3L18.9,13.4z
	 M17.2,27.5l-4,3c-1.5,1.3-3.3,3.3-5.4,6.2c-2.1,2.4-3.5,5.2-4.4,8.3c-0.9,3.1-0.5,4.4,1,4c1.5-0.4,3.5-2.3,5.9-5.7
	c2.1-3.2,3.5-6,4.2-8.2c0.6-0.7,0.8-1.4,0.8-2.1C15.5,33.1,16.1,31.2,17.2,27.5z M35.7,14.1c0-0.9-0.4-1.4-1.1-1.4
	c-1.3,0.4-2.7,1.3-4.1,2.5c-0.3,0.5-0.7,1.1-1.2,1.8c-0.5,0.7-1.1,1.4-1.8,2.1c-0.1,0.3-0.2,0.6-0.2,0.9v0.8c0,0.2,0.1,0.2,0.2,0.2
	h0.2c1.4,0,3.3-1.1,5.7-3.4c1.5-1.5,2.2-2.7,2.2-3.5V14.1z M75.6,16.2c2.1-0.8,3.6-2,4.4-3.6v-0.1c0-0.1,0-0.1,0.1-0.1
	C78.7,12.6,77.2,13.9,75.6,16.2z M106.2,34.5c0-0.2-0.1-0.3-0.3-0.3h-0.1c-4.7,1.2-9.8,3-15.3,5.5c-6.7,3.6-10,6.6-10,9.1v0.5
	c0.8,2.8,3.2,4.4,7.2,4.8c1.4-0.2,2.1-0.4,2.1-0.5l0.6,0.1h0.4l2.7-1.4l0.3,0.1H94c0-0.5,0.5-0.9,1.6-1c0.3-0.8,1.1-1.5,2.5-2.3
	c0-0.6,0.6-1.2,1.9-1.9c0.5-0.3,0.8-0.8,0.8-1.4c0.2,0,0.6-0.6,1.1-1.7c0.4-0.6,0.7-0.9,1.2-0.9v-0.4c-0.2-0.2-0.3-0.4-0.3-0.4
	c0.3-0.9,0.5-1.4,0.6-1.4c0.3,0,0.5-0.4,0.5-1.2c0.1,0,0.1,0,0.1-0.1v-0.6c0.5,0,0.8-0.4,0.8-1.3c0.1,0,0.2-0.3,0.4-0.8
	c0.2,0,0.3-0.1,0.3-0.3c-0.1-0.2-0.1-0.3-0.1-0.4c0.2,0,0.3-0.1,0.3-0.3c0-0.1,0-0.2-0.1-0.4c0-0.6,0.2-0.9,0.6-0.9V34.5z
	 M120.9,29.1l-0.3-0.1h-0.4v0.2c0.2,0,0.4,0,0.5,0.1L120.9,29.1z M167.5,25.3h-0.4c-0.2,0-0.3,0.1-0.3,0.3v0.1h0.3
	C167.2,25.8,167.4,25.6,167.5,25.3z M199.3,25.5l-0.1,0.3V26c0,0.1,0.1,0.2,0.3,0.4l0.6-0.1h0.3l0.9,0.1V26
	C200.5,25.9,199.9,25.7,199.3,25.5z"/>
</svg>
